<svg width="851" height="125" xmlns="http://www.w3.org/2000/svg" xmlns:xlink="http://www.w3.org/1999/xlink">
  <defs>
    <path id="a" d="M.22.454h56.673v58.977H.221z"/>
    <path id="c" d="M.22.333h56.673v57.632H.221z"/>
    <path id="e" d="M.597.454H58.59v58.977H.597z"/>
    <path id="f" d="M.56.454h57.993v58.977H.56z"/>
    <path id="h" d="M.522.454h57.994v58.977H.522z"/>
    <path id="i" d="M.485.454H58.48v58.977H.485z"/>
    <path id="k" d="M0 .454h56.672v58.977H0z"/>
    <path id="m" d="M.633.454h57.995v58.977H.633z"/>
    <path id="n" d="M.374.454h57.994v58.977H.374z"/>
    <path id="p" d="M.338.454h57.994v58.977H.338z"/>
    <path id="r" d="M.293.454h56.672v58.977H.293z"/>
    <path id="s" d="M.257.454h56.672v58.977H.257z"/>
    <path id="u" d="M.448.454h57.994v58.977H.448z"/>
    <path id="w" d="M.411.454h57.994v58.977H.411z"/>
  </defs>
  <g fill="none" fill-rule="evenodd">
    <g transform="translate(794)">
      <mask id="b" fill="#fff">
        <use xlink:href="#a"/>
      </mask>
      <path d="M51.452 24.28H33.998V6.116c0-3.114-2.448-5.662-5.441-5.662s-5.441 2.548-5.441 5.662V24.28H5.662C2.669 24.28.22 26.828.22 29.942c0 3.115 2.448 5.663 5.44 5.663h17.455v18.163c0 3.115 2.448 5.663 5.44 5.663 2.994 0 5.442-2.548 5.442-5.663V35.605h17.454c2.993 0 5.441-2.548 5.441-5.663 0-3.114-2.448-5.662-5.441-5.662" fill="#78BE20" mask="url(#b)"/>
    </g>
    <g transform="translate(794 67)">
      <mask id="d" fill="#fff">
        <use xlink:href="#c"/>
      </mask>
      <path d="M5.662 23.616h17.454V5.866c0-3.043 2.448-5.533 5.441-5.533s5.441 2.49 5.441 5.533v17.75h17.454c2.993 0 5.441 2.49 5.441 5.533s-2.448 5.533-5.44 5.533H33.997v17.75c0 3.043-2.448 5.533-5.44 5.533-2.994 0-5.442-2.49-5.442-5.533v-17.75H5.662c-2.993 0-5.441-2.49-5.441-5.533 0-3.044 2.448-5.533 5.441-5.533" fill="#005EB8" mask="url(#d)"/>
    </g>
    <g transform="translate(198)">
      <mask id="g" fill="#fff">
        <use xlink:href="#f"/>
      </mask>
      <path d="M52.985 24.28h-17.86V6.116c0-3.114-2.506-5.662-5.569-5.662-3.062 0-5.568 2.548-5.568 5.662V24.28H6.128c-3.063 0-5.569 2.548-5.569 5.662 0 3.115 2.506 5.663 5.569 5.663h17.86v18.163c0 3.115 2.506 5.663 5.568 5.663 3.063 0 5.569-2.548 5.569-5.663V35.605h17.86c3.063 0 5.568-2.548 5.568-5.663 0-3.114-2.505-5.662-5.568-5.662" fill="#AE2573" mask="url(#g)"/>
    </g>
    <g transform="translate(331)">
      <mask id="j" fill="#fff">
        <use xlink:href="#i"/>
      </mask>
      <path d="M52.911 24.28h-17.86V6.116c0-3.114-2.506-5.662-5.569-5.662-3.062 0-5.568 2.548-5.568 5.662V24.28H6.054c-3.063 0-5.569 2.548-5.569 5.662 0 3.115 2.506 5.663 5.568 5.663h17.861v18.163c0 3.115 2.506 5.663 5.568 5.663 3.063 0 5.568-2.548 5.568-5.663V35.605h17.861c3.063 0 5.568-2.548 5.568-5.663 0-3.114-2.505-5.662-5.568-5.662" fill="#005EB8" mask="url(#j)"/>
    </g>
    <mask id="l" fill="#fff">
      <use xlink:href="#k"/>
    </mask>
    <path d="M51.231 24.28H33.777V6.116c0-3.114-2.448-5.662-5.44-5.662-2.994 0-5.442 2.548-5.442 5.662V24.28H5.44C2.448 24.28 0 26.828 0 29.942c0 3.115 2.448 5.663 5.441 5.663h17.454v18.163c0 3.115 2.448 5.663 5.441 5.663s5.441-2.548 5.441-5.663V35.605h17.454c2.993 0 5.441-2.548 5.441-5.663 0-3.114-2.448-5.662-5.44-5.662" fill="#78BE20" mask="url(#l)"/>
    <g transform="translate(530)">
      <mask id="o" fill="#fff">
        <use xlink:href="#n"/>
      </mask>
      <path d="M52.8 24.28H34.94V6.116c0-3.114-2.506-5.662-5.569-5.662-3.062 0-5.568 2.548-5.568 5.662V24.28H5.943c-3.063 0-5.569 2.548-5.569 5.662 0 3.115 2.506 5.663 5.568 5.663h17.861v18.163c0 3.115 2.506 5.663 5.568 5.663 3.063 0 5.568-2.548 5.568-5.663V35.605H52.8c3.063 0 5.568-2.548 5.568-5.663 0-3.114-2.505-5.662-5.568-5.662" fill="#FAE100" mask="url(#o)"/>
    </g>
    <g transform="translate(595)">
      <mask id="q" fill="#fff">
        <use xlink:href="#p"/>
      </mask>
      <path d="M52.763 24.28h-17.86V6.116c0-3.114-2.506-5.662-5.568-5.662-3.063 0-5.57 2.548-5.57 5.662V24.28H5.906c-3.062 0-5.567 2.548-5.567 5.662 0 3.115 2.505 5.663 5.568 5.663h17.86v18.163c0 3.115 2.506 5.663 5.569 5.663 3.062 0 5.568-2.548 5.568-5.663V35.605h17.86c3.063 0 5.569-2.548 5.569-5.663 0-3.114-2.506-5.662-5.569-5.662" fill="#41B6E6" mask="url(#q)"/>
    </g>
    <g transform="translate(727)">
      <mask id="t" fill="#fff">
        <use xlink:href="#s"/>
      </mask>
      <path d="M51.488 24.28H34.034V6.116c0-3.114-2.448-5.662-5.441-5.662s-5.441 2.548-5.441 5.662V24.28H5.698c-2.992 0-5.441 2.548-5.441 5.662 0 3.115 2.449 5.663 5.441 5.663h17.454v18.163c0 3.115 2.448 5.663 5.441 5.663s5.441-2.548 5.441-5.663V35.605h17.454c2.993 0 5.441-2.548 5.441-5.663 0-3.114-2.448-5.662-5.441-5.662" fill="#005EB8" mask="url(#t)"/>
    </g>
    <g transform="translate(396)">
      <mask id="v" fill="#fff">
        <use xlink:href="#u"/>
      </mask>
      <path d="M52.874 24.28h-17.86V6.116c0-3.114-2.506-5.662-5.569-5.662-3.062 0-5.568 2.548-5.568 5.662V24.28H6.017c-3.063 0-5.569 2.548-5.569 5.662 0 3.115 2.506 5.663 5.568 5.663h17.861v18.163c0 3.115 2.506 5.663 5.568 5.663 3.063 0 5.568-2.548 5.568-5.663V35.605h17.861c3.063 0 5.568-2.548 5.568-5.663 0-3.114-2.505-5.662-5.568-5.662" fill="#78BE20" mask="url(#v)"/>
    </g>
    <path d="M535.473 90.431h17.554V72.57c0-3.063 2.463-5.569 5.473-5.569s5.473 2.506 5.473 5.569V90.43h17.554c3.01 0 5.473 2.506 5.473 5.569s-2.463 5.569-5.473 5.569h-17.554v17.862c0 3.063-2.463 5.569-5.473 5.569s-5.473-2.506-5.473-5.569V101.57h-17.554c-3.01 0-5.473-2.506-5.473-5.569s2.463-5.569 5.473-5.569" fill="#41B6E6"/>
    <path d="M468.473 90.431h17.554V72.57c0-3.063 2.463-5.569 5.473-5.569s5.473 2.506 5.473 5.569V90.43h17.554c3.01 0 5.473 2.506 5.473 5.569s-2.463 5.569-5.473 5.569h-17.554v17.862c0 3.063-2.463 5.569-5.473 5.569s-5.473-2.506-5.473-5.569V101.57h-17.554c-3.01 0-5.473-2.506-5.473-5.569s2.463-5.569 5.473-5.569" fill="#FFB81C"/>
    <path d="M401.473 90.431h17.554V72.57c0-3.063 2.463-5.569 5.473-5.569s5.473 2.506 5.473 5.569V90.43h17.554c3.01 0 5.473 2.506 5.473 5.569s-2.463 5.569-5.473 5.569h-17.554v17.862c0 3.063-2.463 5.569-5.473 5.569s-5.473-2.506-5.473-5.569V101.57h-17.554c-3.01 0-5.473-2.506-5.473-5.569s2.463-5.569 5.473-5.569" fill="#005EB8"/>
    <path d="M665.473 90.431h17.554V72.57c0-3.063 2.464-5.569 5.474-5.569 3.01 0 5.472 2.506 5.472 5.569V90.43h17.554c3.01 0 5.474 2.506 5.473 5.569 0 3.063-2.463 5.569-5.473 5.569h-17.554v17.862c0 3.063-2.463 5.569-5.473 5.569s-5.473-2.506-5.473-5.569V101.57h-17.554c-3.01 0-5.473-2.506-5.473-5.569s2.463-5.569 5.473-5.569" fill="#AE2573"/>
    <path d="M203.473 90.431h17.554V72.57c0-3.063 2.463-5.569 5.473-5.569s5.473 2.506 5.473 5.569V90.43h17.554c3.01 0 5.473 2.506 5.473 5.569s-2.463 5.569-5.473 5.569h-17.554v17.862c0 3.063-2.463 5.569-5.473 5.569s-5.473-2.506-5.473-5.569V101.57h-17.554c-3.01 0-5.473-2.506-5.473-5.569s2.463-5.569 5.473-5.569" fill="#FAE100"/>
    <path d="M138.473 90.431h17.554V72.57c0-3.063 2.463-5.569 5.473-5.569s5.473 2.506 5.473 5.569V90.43h17.554c3.01 0 5.473 2.506 5.473 5.569s-2.463 5.569-5.473 5.569h-17.554v17.862c0 3.063-2.464 5.569-5.474 5.569-3.01 0-5.472-2.506-5.472-5.569V101.57h-17.554c-3.01 0-5.474-2.506-5.473-5.569 0-3.063 2.463-5.569 5.473-5.569" fill="#41B6E6"/>
    <path d="M70.473 90.431h17.554V72.57C88.027 69.506 90.49 67 93.5 67s5.473 2.506 5.473 5.569V90.43h17.554c3.01 0 5.473 2.506 5.473 5.569s-2.463 5.569-5.473 5.569H98.973v17.862c0 3.063-2.463 5.569-5.473 5.569s-5.473-2.506-5.473-5.569V101.57H70.473C67.463 101.569 65 99.063 65 96s2.463-5.569 5.473-5.569" fill="#FFB81C"/>
    <path d="M5.473 90.431h17.554V72.57C23.027 69.506 25.49 67 28.5 67s5.473 2.506 5.473 5.569V90.43h17.554C54.537 90.431 57 92.937 57 96s-2.463 5.569-5.473 5.569H33.973v17.862c0 3.063-2.463 5.569-5.473 5.569s-5.473-2.506-5.473-5.569V101.57H5.473C2.463 101.569 0 99.063 0 96s2.463-5.569 5.473-5.569" fill="#005EB8"/>
  </g>
</svg>
