<svg width="1633" height="616" xmlns="http://www.w3.org/2000/svg" xmlns:xlink="http://www.w3.org/1999/xlink">
  <defs>
    <path id="a" d="M.43.847h110.362v110.04H.43z"/>
    <path id="c" d="M.43.637h110.362v110.157H.43z"/>
    <path id="e" d="M.184.847h110.04v110.04H.184z"/>
    <path id="f" d="M.112.847h110.04v110.04H.113z"/>
    <path id="h" d="M.112.847h110.04v110.04H.113z"/>
    <path id="j" d="M.042.847h110.04v110.04H.043z"/>
    <path id="k" d="M.92.847h110.041v110.04H.921z"/>
    <path id="m" d="M0 .847h110.362v110.04H0z"/>
    <path id="o" d="M.048.847h110.244v110.04H.048z"/>
    <path id="p" d="M.711.847h110.245v110.04H.71z"/>
    <path id="r" d="M.642.847h110.244v110.04H.642z"/>
    <path id="t" d="M.57.847h110.363v110.04H.57z"/>
    <path id="u" d="M.5.847h110.362v110.04H.5z"/>
    <path id="w" d="M.85.847h110.04v110.04H.85z"/>
    <path id="y" d="M.78.847h110.04v110.04H.78z"/>
    <path id="z" d="M.112.847h110.04v110.04H.113z"/>
  </defs>
  <g fill="none" fill-rule="evenodd">
    <g transform="translate(1522 377)">
      <mask id="b" fill="#fff">
        <use xlink:href="#a"/>
      </mask>
      <path d="M100.196 45.302h-33.99v-33.89C66.207 5.6 61.44.846 55.612.846S45.015 5.6 45.015 11.412v33.89h-33.99C5.199 45.302.43 50.056.43 55.867c0 5.81 4.768 10.565 10.596 10.565h33.989v33.89c0 5.811 4.768 10.565 10.596 10.565s10.596-4.754 10.596-10.565v-33.89h33.989c5.828 0 10.596-4.754 10.596-10.565s-4.768-10.565-10.596-10.565" fill="#78BE20" mask="url(#b)"/>
    </g>
    <g transform="translate(1522 505)">
      <mask id="d" fill="#fff">
        <use xlink:href="#c"/>
      </mask>
      <path d="M11.026 45.14h33.99V11.212C45.015 5.396 49.782.637 55.61.637s10.596 4.759 10.596 10.576V45.14h33.99c5.827 0 10.595 4.76 10.595 10.577s-4.768 10.576-10.596 10.576H66.207v33.926c0 5.817-4.768 10.576-10.596 10.576s-10.596-4.759-10.596-10.576V66.292H11.026C5.198 66.292.43 61.532.43 55.716c0-5.818 4.768-10.577 10.596-10.577" fill="#005EB8" mask="url(#d)"/>
    </g>
    <g transform="translate(381 377)">
      <mask id="g" fill="#fff">
        <use xlink:href="#f"/>
      </mask>
      <path d="M99.587 45.302H65.7v-33.89C65.699 5.6 60.944.846 55.132.846c-5.81 0-10.565 4.754-10.565 10.566v33.89H10.68C4.866 45.302.112 50.056.112 55.867c0 5.81 4.754 10.565 10.567 10.565h33.888v33.89c0 5.811 4.754 10.565 10.565 10.565 5.812 0 10.567-4.754 10.567-10.565v-33.89h33.888c5.812 0 10.566-4.754 10.566-10.565s-4.754-10.565-10.566-10.565" fill="#AE2573" mask="url(#g)"/>
    </g>
    <g transform="translate(506 252)">
      <mask id="i" fill="#fff">
        <use xlink:href="#h"/>
      </mask>
      <path d="M65.699 45.302v-33.89C65.699 5.6 60.944.846 55.132.846c-5.81 0-10.565 4.754-10.565 10.566v33.89H10.68C4.866 45.302.112 50.056.112 55.867c0 5.81 4.754 10.565 10.567 10.565h33.888v33.89c0 5.811 4.754 10.565 10.565 10.565 5.812 0 10.567-4.754 10.567-10.565v-33.89h33.888c5.812 0 10.566-4.754 10.566-10.565s-4.754-10.565-10.566-10.565H65.7z" fill="#78BE20" mask="url(#i)"/>
    </g>
    <g transform="translate(632 377)">
      <mask id="l" fill="#fff">
        <use xlink:href="#k"/>
      </mask>
      <path d="M100.396 45.302h-33.89v-33.89C66.506 5.6 61.752.846 55.94.846S45.376 5.6 45.376 11.412v33.89h-33.89C5.675 45.302.92 50.056.92 55.867c0 5.81 4.754 10.565 10.565 10.565h33.89v33.89c0 5.811 4.754 10.565 10.565 10.565 5.81 0 10.565-4.754 10.565-10.565v-33.89h33.89c5.811 0 10.565-4.754 10.565-10.565s-4.754-10.565-10.565-10.565" fill="#005EB8" mask="url(#l)"/>
    </g>
    <g transform="translate(0 377)">
      <mask id="n" fill="#fff">
        <use xlink:href="#m"/>
      </mask>
      <path d="M99.766 45.302h-33.99v-33.89C65.777 5.6 61.01.846 55.182.846S44.585 5.6 44.585 11.412v33.89h-33.99C4.769 45.302 0 50.056 0 55.867c0 5.81 4.768 10.565 10.596 10.565h33.989v33.89c0 5.811 4.768 10.565 10.596 10.565s10.596-4.754 10.596-10.565v-33.89h33.989c5.828 0 10.596-4.754 10.596-10.565s-4.768-10.565-10.596-10.565" fill="#78BE20" mask="url(#n)"/>
    </g>
    <g transform="translate(1013 377)">
      <mask id="q" fill="#fff">
        <use xlink:href="#p"/>
      </mask>
      <path d="M100.371 45.302H66.418v-33.89C66.418 5.6 61.655.846 55.834.846c-5.822 0-10.585 4.754-10.585 10.566v33.89H11.296C5.474 45.302.711 50.056.711 55.867c0 5.81 4.763 10.565 10.585 10.565h33.953v33.89c0 5.811 4.763 10.565 10.585 10.565 5.821 0 10.584-4.754 10.584-10.565v-33.89h33.953c5.822 0 10.585-4.754 10.585-10.565s-4.763-10.565-10.585-10.565" fill="#FAE100" mask="url(#q)"/>
    </g>
    <g transform="translate(1141 377)">
      <mask id="s" fill="#fff">
        <use xlink:href="#r"/>
      </mask>
      <path d="M100.3 45.302H66.35v-33.89C66.349 5.6 61.586.846 55.764.846c-5.822 0-10.586 4.754-10.586 10.566v33.89H11.226C5.404 45.302.642 50.056.642 55.867c0 5.81 4.762 10.565 10.584 10.565h33.952v33.89c0 5.811 4.764 10.565 10.586 10.565s10.585-4.754 10.585-10.565v-33.89H100.3c5.822 0 10.586-4.754 10.586-10.565s-4.764-10.565-10.586-10.565" fill="#41B6E6" mask="url(#s)"/>
    </g>
    <g transform="translate(1394 377)">
      <mask id="v" fill="#fff">
        <use xlink:href="#u"/>
      </mask>
      <path d="M100.266 45.302H66.277v-33.89C66.277 5.6 61.51.846 55.681.846S45.085 5.6 45.085 11.412v33.89H11.096C5.27 45.302.5 50.056.5 55.867c0 5.81 4.77 10.565 10.596 10.565h33.99v33.89c0 5.811 4.767 10.565 10.595 10.565s10.596-4.754 10.596-10.565v-33.89h33.99c5.827 0 10.595-4.754 10.595-10.565s-4.768-10.565-10.596-10.565" fill="#005EB8" mask="url(#v)"/>
    </g>
    <g transform="translate(759 377)">
      <mask id="x" fill="#fff">
        <use xlink:href="#w"/>
      </mask>
      <path d="M100.326 45.302h-33.89v-33.89C66.436 5.6 61.682.846 55.87.846c-5.812 0-10.566 4.754-10.566 10.566v33.89h-33.89C5.605 45.302.85 50.056.85 55.867c0 5.81 4.754 10.565 10.565 10.565h33.89v33.89c0 5.811 4.754 10.565 10.566 10.565 5.81 0 10.565-4.754 10.565-10.565v-33.89h33.89c5.81 0 10.565-4.754 10.565-10.565s-4.754-10.565-10.565-10.565" fill="#78BE20" mask="url(#x)"/>
    </g>
    <path d="M1025.657 549.843h34.186v-34.186c0-5.862 4.795-10.657 10.657-10.657s10.657 4.795 10.657 10.657v34.186h34.186c5.862 0 10.657 4.795 10.657 10.657s-4.795 10.657-10.657 10.657h-34.186v34.186c0 5.862-4.795 10.657-10.657 10.657s-10.657-4.795-10.657-10.657v-34.186h-34.186c-5.862 0-10.657-4.795-10.657-10.657s4.795-10.657 10.657-10.657" fill="#41B6E6"/>
    <path d="M899.657 549.843h34.186v-34.186c0-5.862 4.795-10.657 10.657-10.657s10.657 4.795 10.657 10.657v34.186h34.186c5.862 0 10.657 4.795 10.657 10.657s-4.795 10.657-10.657 10.657h-34.186v34.186c0 5.862-4.795 10.657-10.657 10.657s-10.657-4.795-10.657-10.657v-34.186h-34.186c-5.862 0-10.657-4.795-10.657-10.657s4.795-10.657 10.657-10.657" fill="#FFB81C"/>
    <path d="M772.657 549.843h34.186v-34.186c0-5.862 4.795-10.657 10.657-10.657s10.657 4.795 10.657 10.657v34.186h34.186c5.862 0 10.657 4.795 10.657 10.657s-4.795 10.657-10.657 10.657h-34.186v34.186c0 5.862-4.795 10.657-10.657 10.657s-10.657-4.795-10.657-10.657v-34.186h-34.186c-5.862 0-10.657-4.795-10.657-10.657s4.795-10.657 10.657-10.657" fill="#005EB8"/>
    <path d="M1278.659 549.843h34.184v-34.186c0-5.862 4.796-10.657 10.658-10.657 5.862 0 10.658 4.795 10.658 10.657v34.186h34.184c5.862 0 10.658 4.795 10.657 10.657 0 5.862-4.795 10.657-10.657 10.657h-34.184v34.186c0 5.862-4.797 10.657-10.659 10.657-5.862 0-10.657-4.795-10.657-10.657v-34.186h-34.184c-5.862 0-10.659-4.795-10.659-10.657.001-5.862 4.797-10.657 10.659-10.657" fill="#AE2573"/>
    <g transform="translate(381)">
      <mask id="A" fill="#fff">
        <use xlink:href="#z"/>
      </mask>
      <path d="M99.587 45.302H65.7v-33.89C65.699 5.6 60.944.846 55.132.846c-5.81 0-10.565 4.754-10.565 10.566v33.89H10.68C4.866 45.302.112 50.056.112 55.867c0 5.81 4.754 10.565 10.567 10.565h33.888v33.89c0 5.811 4.754 10.565 10.565 10.565 5.812 0 10.567-4.754 10.567-10.565v-33.89h33.888c5.812 0 10.566-4.754 10.566-10.565s-4.754-10.565-10.566-10.565" fill="#005EB8" mask="url(#A)"/>
    </g>
    <path d="M391.659 172.843h34.184v-34.186c0-5.862 4.795-10.657 10.657-10.657s10.659 4.795 10.659 10.657v34.186h34.184c5.862 0 10.657 4.795 10.657 10.657s-4.795 10.657-10.657 10.657h-34.184v34.186c0 5.862-4.797 10.657-10.659 10.657-5.862 0-10.657-4.795-10.657-10.657v-34.186h-34.184c-5.862 0-10.659-4.795-10.659-10.657s4.797-10.657 10.659-10.657" fill="#FAE100"/>
    <path d="M264.657 549.843h34.184v-34.186c0-5.862 4.797-10.657 10.659-10.657 5.862 0 10.657 4.795 10.657 10.657v34.186h34.184c5.862 0 10.659 4.795 10.659 10.657-.001 5.862-4.797 10.657-10.659 10.657h-34.184v34.186c0 5.862-4.796 10.657-10.658 10.657-5.862 0-10.658-4.795-10.658-10.657v-34.186h-34.184c-5.862 0-10.658-4.795-10.657-10.657 0-5.862 4.795-10.657 10.657-10.657" fill="#41B6E6"/>
    <path d="M170.843 549.843v-34.186c0-5.862 4.795-10.657 10.657-10.657s10.657 4.795 10.657 10.657v34.186h34.186c5.862 0 10.657 4.795 10.657 10.657s-4.797 10.657-10.659 10.657h-34.184v34.186c0 5.862-4.795 10.657-10.657 10.657s-10.659-4.795-10.659-10.657v-34.186h-34.184c-5.862 0-10.657-4.795-10.657-10.657s4.795-10.657 10.657-10.657h34.186z" fill="#FFB81C"/>
    <path d="M10.657 549.843h34.186v-34.186c0-5.862 4.795-10.657 10.657-10.657s10.657 4.795 10.657 10.657v34.186h34.186c5.862 0 10.657 4.795 10.657 10.657s-4.795 10.657-10.657 10.657H66.157v34.186c0 5.862-4.795 10.657-10.657 10.657s-10.657-4.795-10.657-10.657v-34.186H10.657C4.795 571.157 0 566.362 0 560.5s4.795-10.657 10.657-10.657" fill="#005EB8"/>
  </g>
</svg>
