<svg width="22" height="21" viewBox="0 0 22 21" fill="none" xmlns="http://www.w3.org/2000/svg">
<path d="M5.20062 21H0.846875V6.97971H5.20062V21ZM3.02141 5.06721C1.62922 5.06721 0.5 3.91408 0.5 2.52189C0.5 1.85318 0.765647 1.21185 1.2385 0.738991C1.71136 0.266136 2.35269 0.000488281 3.02141 0.000488281C3.69012 0.000488281 4.33145 0.266136 4.80431 0.738991C5.27716 1.21185 5.54281 1.85318 5.54281 2.52189C5.54281 3.91408 4.41313 5.06721 3.02141 5.06721ZM21.4953 21H17.1509V14.175C17.1509 12.5485 17.1181 10.4625 14.8873 10.4625C12.6237 10.4625 12.2769 12.2297 12.2769 14.0578V21H7.92781V6.97971H12.1034V8.89221H12.1644C12.7456 7.79064 14.1655 6.62814 16.2838 6.62814C20.69 6.62814 21.5 9.52971 21.5 13.2985V21H21.4953Z" fill="#768692"/>
</svg>
