<svg width="24" height="24" viewBox="0 0 24 24" fill="none" xmlns="http://www.w3.org/2000/svg">
<path d="M12 0C5.37242 0 0 5.37242 0 12C0 18.6276 5.37242 24 12 24C18.6276 24 24 18.6276 24 12C24 5.37242 18.6276 0 12 0ZM15.9818 17.3032C15.7931 17.491 15.5952 17.6879 15.4345 17.849C15.2898 17.9942 15.1877 18.1732 15.136 18.3673C15.0629 18.6411 15.0039 18.9179 14.9052 19.1835L14.0637 21.4505C13.3979 21.5956 12.7089 21.6774 12 21.6774V20.3526C12.0818 19.7419 11.6303 18.5981 10.905 17.8727C10.6147 17.5824 10.4516 17.1885 10.4516 16.7777V15.2289C10.4516 14.6656 10.1482 14.1479 9.65516 13.8755C8.95984 13.4908 7.97081 12.9532 7.29339 12.6121C6.7379 12.3324 6.22403 11.9763 5.76194 11.5597L5.72323 11.5248C5.39277 11.2265 5.09938 10.8896 4.84935 10.5213C4.39548 9.855 3.65613 8.75903 3.17564 8.04677C4.16613 5.84516 5.95113 4.0771 8.16919 3.11661L9.33097 3.69774C9.84581 3.95516 10.4516 3.58113 10.4516 3.00532V2.45855C10.8382 2.39613 11.2316 2.35645 11.6318 2.34145L13.0011 3.71081C13.3035 4.01323 13.3035 4.50339 13.0011 4.80581L12.7742 5.03226L12.2739 5.53258C12.1229 5.68355 12.1229 5.92887 12.2739 6.07984L12.5008 6.30677C12.6518 6.45774 12.6518 6.70306 12.5008 6.85403L12.1137 7.24113C12.041 7.31367 11.9425 7.35439 11.8398 7.35435H11.4048C11.3042 7.35435 11.2074 7.39355 11.1348 7.46419L10.6548 7.93113C10.596 7.98842 10.5569 8.06293 10.5431 8.1439C10.5294 8.22487 10.5417 8.30811 10.5784 8.38161L11.3327 9.89081C11.4615 10.1482 11.2742 10.4511 10.9868 10.4511H10.7139C10.6205 10.4511 10.5305 10.4173 10.4603 10.3563L10.0113 9.96629C9.90968 9.87814 9.78687 9.81795 9.65494 9.79165C9.52302 9.76535 9.38652 9.77384 9.25887 9.81629L7.75064 10.319C7.6355 10.3574 7.53535 10.4311 7.4644 10.5296C7.39345 10.628 7.35529 10.7464 7.35532 10.8677C7.35532 11.0869 7.47919 11.2868 7.67516 11.385L8.21129 11.6531C8.66661 11.881 9.16887 11.9995 9.6779 11.9995C10.1869 11.9995 10.771 13.32 11.2263 13.5479H14.4561C14.8669 13.5479 15.2603 13.711 15.5511 14.0013L16.2135 14.6637C16.4903 14.9405 16.6457 15.316 16.6456 15.7074C16.6455 16.004 16.5868 16.2977 16.4729 16.5716C16.359 16.8454 16.1921 17.0941 15.9818 17.3032ZM20.1774 12.8831C19.8973 12.8129 19.6529 12.6411 19.4927 12.4006L18.6227 11.0956C18.4954 10.905 18.4275 10.6809 18.4275 10.4516C18.4275 10.2224 18.4954 9.99824 18.6227 9.80758L19.5706 8.38597C19.6829 8.21806 19.8368 8.08161 20.0177 7.99161L20.6458 7.67758C21.3 8.98016 21.6774 10.4453 21.6774 12C21.6774 12.4195 21.6416 12.8303 21.5894 13.2358L20.1774 12.8831Z" fill="#768692"/>
</svg>
