<svg width="24" height="20" viewBox="0 0 24 20" fill="none" xmlns="http://www.w3.org/2000/svg">
<path d="M21.533 5.11175C21.5482 5.32494 21.5482 5.53817 21.5482 5.75136C21.5482 12.2539 16.599 19.7463 7.5533 19.7463C4.76648 19.7463 2.17767 18.9391 0 17.5382C0.395953 17.5838 0.776625 17.5991 1.18781 17.5991C3.48727 17.5991 5.60405 16.8224 7.29441 15.4976C5.13197 15.4519 3.31978 14.0356 2.69541 12.0864C3 12.132 3.30455 12.1625 3.62437 12.1625C4.06598 12.1625 4.50764 12.1016 4.91878 11.995C2.66498 11.5381 0.974578 9.55845 0.974578 7.16759V7.1067C1.62937 7.47219 2.39086 7.70061 3.19791 7.73103C1.87303 6.84777 1.00505 5.34017 1.00505 3.63458C1.00505 2.72089 1.24866 1.88333 1.67508 1.15236C4.09641 4.13713 7.73602 6.08633 11.8172 6.29956C11.7411 5.93408 11.6954 5.55341 11.6954 5.17269C11.6954 2.462 13.8883 0.253906 16.6141 0.253906C18.0304 0.253906 19.3095 0.847813 20.208 1.8072C21.3197 1.59402 22.3857 1.18283 23.3299 0.619391C22.9643 1.76155 22.1877 2.72094 21.1674 3.33003C22.1573 3.22348 23.1167 2.94931 23.9999 2.56864C23.33 3.54322 22.4924 4.4112 21.533 5.11175Z" fill="#768692"/>
</svg>
