<?xml version="1.0" encoding="utf-8"?>
<!-- Generator: Adobe Illustrator 25.3.1, SVG Export Plug-In . SVG Version: 6.00 Build 0)  -->
<svg version="1.1" id="Layer_1" xmlns="http://www.w3.org/2000/svg" xmlns:xlink="http://www.w3.org/1999/xlink" x="0px" y="0px"
	 viewBox="0 0 760 1415" style="enable-background:new 0 0 760 1415;" xml:space="preserve">
<style type="text/css">
	.st0{fill:#005EB8;stroke:#FFFFFF;stroke-width:0.5;stroke-miterlimit:10;}
	.st1{fill:#425563;}
</style>
<g id="ireland">
	<path class="st1" d="M156.1,722.7l-1.4,3l-1.2,1.5l-2.7,1l1.7-4l-3.5-0.4l-3.5-1.4l0.2-2.2l2,0.7h2.5l2,0.7h2.2L156.1,722.7z"/>
	<path class="st1" d="M75,752.5l3.3-0.7l2.6-0.2h1.5l1.6,2l2.1,0.1l3.1-0.4l2-1.4l1.6-3.2c0,0,0.1-1.8,1-1.9c1-0.1,1.7-0.9,1.7-0.9
		l0.9-3.4l0.3-3.9l2.2-1.9l1.9,1c0,0,3.6,0.4,4.4,0.5c0.8,0,3.4,0.8,3.4,0.8l1.9,0.2l2.9,0.9l1.4-2.1c0,0,0.5-1.6,1.2-1.7
		c0.7-0.1,1.6-0.6,2.6-0.7c1-0.1,4.6-0.5,4.6-0.5s2.6-0.7,3.1-1s1.9-3,2.6-3.5s2.3-1.2,3.1-0.9c0.8,0.4,2.9,1.2,2.9,1.2l2.8,0.3
		c0,0,0.4-1.5,1.3-0.9c1,0.5,1.9,0.7,3.4,1.1c1.4,0.4,3.2,1.6,3.7,2.1s1.1,1.7,1.9,1.9c0.8,0.2,4.6-1.5,4.6-1.5l4.9,0.5l3,2.9
		l1.8,3l1,4.1c0,0-1,1.3-1,1.9c0,0.7-0.1,4.1-0.1,4.1l-0.1,2l3.2,0.8c0,0,2.5,1.9,2.5,2.4s-0.3,4.2-0.3,4.2l-0.6,2.6l5.3,5.4
		l1.7,3.5l1.2,2l2.5,3.8l1,2.8l-0.5,1.3l0.3,1.8l1.4,1.5l1.6,1l1.9,2.8l0.9,1.5l0.5-1.1l-0.1-2.4l-1.1-1.8l-0.9-1.8l-0.6-2.3
		l1.8,0.1l2,2l0.7,3l0.2,3.3l-0.1,2.4l-1.4,3l-2.8,1.4l-2.5,1.2l-2.8,1.7l-2.8,1.7l-2.6,3.3l-0.8,3.4l0.1,2.9l0.6,1l1.2-1.6
		c0,0-0.3-1.3,0.2-1.6s3.6-1,3.6-1l2-1.9l2.3-1.4l2.9-0.5l1.3,0.5l4.4,0.5l2.2-1.6l3.7,1.3l1.9,2l1.5,2.7c0,0,0.1,1.5,0.3,2.1
		c0.1,0.7,3.3,4.7,3.3,4.7s-0.3,3.9-0.3,4.4s1.5,3.6,1.5,3.6l2.3,3.5l-1.3,3.2l-1.9,2.4l-0.1,4.1l-0.2,2.3l-0.5,4.1l-0.6,2.3
		l-1.4-3l-1.8-3l-1.4-2.2l0.7-2.7c0,0-0.3-1.6,0.2-2.3c0.5-0.6,0.6-2.7,0.6-2.7l-1.2-3.9l-0.2-3.3l-1.1-1.5c0,0-2.5-1.9-2.8-2.4
		s-1.6-1.7-1.9-2.2c-0.3-0.5-2.2-0.9-2.2-0.9l-1.5-0.1l-1.2,2.6l-0.6,2.4l2.1,1.2l1.7,1.8l-0.4,3.1l0.2,2.3l1.7,2.7l0.1,3.1
		l-0.6,2.3l-1.4,2.9l-2.1,3.2l3.1-1c0,0,1.2-1.4,1.8-1.4s3.2,1.2,3.2,1.2l2.7,2.7l-0.1,3.9l-0.9,2.2l-1.2,2.4c0,0-2.3,0.4-2.6,1.2
		c-0.4,0.8-0.6,2.4-0.6,2.4l-1.3-0.7l-1,0.9l-1.2,2.1l-2.7-1.4c0,0-5.5-0.8-6-0.9c-0.5,0-3.2-0.6-3.2-0.6l-1.4-0.9l-0.6,2.9
		l-1.7,1.2l-1.9,1.7l0.7,2.5l0.8,4.7l-1.7,1.1l0.6,2.6l-0.9,3.1l-2.5,1.2l-2.8,2.3l0.1,1.6c0,0-2.4-0.4-2.6,0.1
		c-0.2,0.5-1.7,2.2-1.7,2.2l-1.6,0.6l-1.3-1.2l-1.7-1.7l-3.2-0.6l-1.6-0.5l-1.9-2.5l-2.9-1.1l-3.1-0.4"/>
	<path class="st1" d="M75,752.5l-2.7,3.5l-0.2,1.9l-1.9,2l-1.7,1.4l-2.4,2.7l-2.3,1.4l-3.6-0.1l-0.8,3.6l0.7,3.3l-0.4,3.4l-2.1,3.7
		l-4,3.6l-1.1,3.1l-0.1,3.1l-2.9,0.4l-2.1,0.1l-1.5-0.4l-2.8,2l-3.4,0.7l-1.6,3l-2.1-0.7l-2.8-2.9l-3.3,0.2l-3,2.5l-1.7,1.7
		l-0.1,2.6l3,1.6l1.4,2.8l2.9-0.5l2,1.9l4.1,0.3l1.9,0.1l-1.6,2.5l-2.8,1l-0.5,1.8l-2.4,0.1l-2.7,3.3l0.3,1.6l-2.3,0.7l-2.4-0.6
		l-3.1,0.5l-1.6-1.2l-4.4-0.8l-1.8,3.7l-1.1,2.7l-2.8,0.7l-2.3,1.7L5,822.9l2.1,1.5l-1,1.4l2.5,3.2l3.4,3.9l1.7,3l2.4,0.6l1.7,2.7
		l1.2,1.5l-0.1,2.8l3.9,0.8l2.3,0.2l1.2,3.1l-0.1,4.2l0.4,2.6l1.9,2.2h3.3l2.9,0.3l3.7,0.1l1.7,2.5l2.3,0.4l-0.1,1.6l2,2l2,2
		l1.3,0.2l0.1,1l3.4-0.7l2.7,1.9l1.8-1.4l0.5-1.6l2.6-0.1l0.4,1.2l2.1,1.2l3.4,1.4l1.3-1.1l-0.7-2.3c0,0,0.6-2.3,1.4-2.2
		c0.8,0,1.9,0.4,1.9,0.4l-0.1,2.9L68,869l1.4-1.4l1.4-2.7l0.4-2.1l-0.4-2l1.2-1.6l4-2.9l1.3,0.9l1.8-1.4l0.3-3.1l-0.7-2.1l-1.7-1.2
		c0,0-1.1-0.7-1.1-1.2s0.1-2.1,0.1-2.1l2-1.2V843l1.7-1.6c0,0,1.8-0.4,2-0.9s1.2-2.7,1.2-2.7l1.8-0.8l1.5-2.4l0.9-1.9l2-0.4
		l1.1,0.7l1.6,0.9l2.2,3l1.9,1l1.1,1.7l-0.1,1.5l1.8,0.1l1.4,2.3l0.4,3.1l-0.6,1.8l-0.6,1.9l1.3,1l1.6,0.4l0.2,2.6l0.9,3.4l2.5,2.4
		l2.2,1.2l0.9,1.2l1.5-1.2l2.1,0.1l1.9,0.7l1.3,1.3l0.1,2.9l-0.7,2.4l-0.9,1.8l0.2,3.9l-0.1,3.1l2.2,2.8l2.7-1.5l3.2,0.8l2.9-0.4
		l2-2.2l2.3,0.1l1.1,1.3l3.1-0.5l2.1-0.6l-0.1-2.8l0.2-1.9l1.8,0.1l0.4,1.5l2-0.6l2.9-0.2l0.6,0.7"/>
</g>
<g id="scotland">
	<path class="st1" d="M376.5,258.8l-10.9-4.7l-1.9,4l0.1,3.9l2,2.3l4.3,2.2l2,3.9l2.3,1.9l3.6-1.4l2.9-1.7l-2.7-1.9l-1.7-3.6
		L376.5,258.8z"/>
	<path class="st1" d="M376.5,258.8l-10.9-4.7l-1.9,4l0.1,3.9l2,2.3l4.3,2.2l2,3.9l2.3,1.9l3.6-1.4l2.9-1.7l-2.7-1.9l-1.7-3.6
		L376.5,258.8z"/>
	<path class="st1" d="M397.7,267.3l-5.6,1.7l-1.3,2l0.7,3.3l2.4,6.5l1.3,0.3l1-1.7l-1.1-4.6l1.9-2.3l2.6-3l-0.4-1.3L397.7,267.3z"/>
	<path class="st1" d="M383.6,270.8l-3.3,0.4l-0.6,2h2.6L383.6,270.8z"/>
	<path class="st1" d="M396.4,251.5l-0.9,4.6l2.7,1.9l5.6,1.9l1.6-3l3.6-3l2.6-2l0.3-2.6l-3.3,0.1l-4.2,3.7l-0.1-3l1.6-3.3l-4.9,1.1
		l-1.3-0.6l0.6-2.6l-5.6,0.1l-3,0.1l-5.9,0.1l0.6-1.7l1-1l0.9-2.6h2.6l1.3-1.7v-1.3l-1.7-1.3v-2.3l-3-3.2l-4.3-0.6l-4-3.6l-4.6,1.4
		l-2.9,2.7l-2.6,3.7l0.4,5.3l0.8,6.6L369,249l4.3,0.9l3-0.1l2.4,2.9l2.3,2.6l3-0.1l3.3-2l3.2-2.4l3-0.4L396.4,251.5z"/>
	<path class="st1" d="M501,135.8l1.9-3l-0.7-3.6l0.9-4.3l1.6-4.6l2.6,0.6l0.4-3.3l-0.5-1.8l-1.3-1.1l0.8-3.5l3.5,1.4v-2l-0.1-3.9
		l-1.7-4.9c0,0,2-6.9,2-7.4s-0.1-4.9-0.1-4.9l-1-2.1l-2.2-1.9l0.6-1.7l5.5-2.7l-1.9-2.4l0.9-3.3l-0.2-1.6l-1.5-1.3h-2.6l-0.4-2.5
		l2.5-1l2.9-0.9l2.3-2.8l-0.5-2.5l-0.7-2.6l1.3-2.7l0.6-1.3l-1-0.6l-1.5,1.7l-1.1,1.3l-1,1.8l0.4,1.3h-2l-2.3-0.9l0.6-1.5l1.6-1.8
		L511,56l-1.7-1.5l-2.7-1.1l0.4-3.8l-2.2-1.9l-2.6,2l-0.9,2.8l2.2,1.6l-1.4,1.8l-2.1,2l-1.1,1l0.5,1.3l-0.9,2.6c0,0-0.6,1-1,0.3
		c-0.3-0.7-0.9-2.3-0.9-2.3l0.8-1.5l-0.2-0.7l0.9-4.1c0,0,0.6-1.8,0.3-2.3s-1.5-3.4-1.5-3.4l-0.8-1.1l2.4-1.5l1.3-3l-0.1-3.1v-2.3
		L498,35l-1.8-1l-0.8,1.7l-2-0.5L491,35l-0.8,1.2l0.7,1.8l0.2,3l0.1,3.3l-1,1.3v2.8l-2-0.3l-1.9-2.6l-1.5-2.1h-1.6l0.1,4.6v2.1
		l-2.1,0.4l-1.6,1V53l2.6,0.6l1.7,0.5l1,2.6l1-2l2.1-1.4l3.1-0.2l0.2,1.3l-0.6,1.7v1.5l2.5,3.1l-4.6,2.1l-0.1,3l0.5,2.5l2.3,0.3
		l3-0.2l1.8,0.3l1.7,1.6l-1.6,0.7c0,0-0.3,1.2-0.5,1.7s-0.3,3.3-0.3,3.3l-3.1,1l-2-1.4l-3.8-0.9l-3.1,1.2l-0.3,1.8l-3.8-2.1
		c0,0-1.5,0.7-2.1,0s-2.4-4.2-2.4-4.2l-2.7-1.3l-0.3,0.7c0,0,0.2,0.7,1,2s2,1.8,2,1.8l-2,1.4l2.2,2.6l0.4,2.8l-0.3,3.3l0.9,2.5
		l2.3,1.6l2.8,0.3c0,0,0.6-0.7,1.1-0.8s3.3-0.9,3.3-0.9l-0.2-2.6l0.8-0.3l1.4,2.4l2.2,0.9l-0.5,1.2h-2.3l-2.4,1l0.4,1.8l2.5,2.4
		l0.4,1.5l2.1-0.7l2.1-2.2c0,0,2.1,0.3,2.8-0.4c0.6-0.7,0.9-2.8,0.9-2.8h1.8l0.1-2.1h2l0.4,2.6l-1.6,3l-0.6,2.6L500,97l-1.6,1
		l2.6,0.6l1.6-0.5l-0.3,3.1l-1.5,1.5l-1.6,1.7l-0.1,2l-0.1,3.8l0.3,6.6l-0.6,2.8l-0.6,1.5l2.3,1.3l-5.2,2.2l0.7,3.3l1.4,3.4l3.1,0.9
		L501,135.8z"/>
	<path class="st1" d="M513.5,91l2.3,1.9l2.3,0.8l-0.1,2.8l-0.8,2.5l-0.3,3.5l-2,0.9l-0.8-1.3V100l0.3-2.6v-1.8l-1.2-1.3L513.5,91z"
		/>
	<path class="st1" d="M452.6,103.9l0.8-1.5l0.3-2.5l-0.2-3.1l-0.2-1.5h-1.8l-2.1,0.2l-0.6,1.8l0.4,2.1l2.3,1.6L452.6,103.9z"/>
	<path class="st1" d="M516.8,70.4l2.4-1.2l1.9-1.8l0.3-1.5l4.1,1.4l-1.9,2.2l-1.4,2.2l-2.5,0.7l-1.5,0.2L516.8,70.4z"/>
	<path class="st1" d="M510.6,51.6l2.8-2.4l2.3,0.3h2.1l1.1-0.8l-1.4-4.4l0.1-2.1l0.9-3.3v-1.2c0,0-2-1.9-2-2.4s-0.2-1.5-0.2-1.5
		l0.1-3h2l-0.2-3.5c0,0-0.7-3.8-1.1-4.6c-0.3-0.8-1.5-2.6-1.5-2.6l-2-0.1l-1.8-0.6l-1.6,0.2l-0.6,1.3l0.6,4.4l0.2,3.6l-2.6,1
		l-0.6,1.8l0.9,5.6l-2.1,4.6l2,0.1l1.5,1l0.4,1.6l0.4,3.3L510.6,51.6z"/>
	<path class="st1" d="M527.6,22v-0.8l2.4-2.7l-0.6-3.8l0.1-2.8l1.9-1.8l1.6-4L529.8,5l-1.6,1.7l-6.2,4.4l0.5,1.1L523,14l-0.1,2.3
		l-0.6,2.6l-0.1,1.8l0.2,2.3l0.9,2l1.5,1.5h2l2.6,0.1l1.9-1.5c0,0,0.1-1-0.7-1.6s-1.3-1-1.3-1L527.6,22z"/>
	<path class="st1" d="M529.6,31.2h-1.3l-1,0.8l-5.6,0.4V34l2.3,0.6l0.9,2.3l0.3,1l3.1,1.3l0.6-2.5l0.5-0.3l0.7,1.8l2.5,0.9l2-1
		l-0.9-2.5L533,34c0,0-2.5-0.5-2.5,0s-0.5,0.3-0.5,0.3L529.6,31.2z"/>
	<path class="st1" d="M498.6,103.8l-0.6,1.8l-0.5,2.5l0.4,4.1l-1,0.3l-0.5-2.1l-0.2-2.1l0.3-2.8l1.3-2L498.6,103.8z"/>
	<path class="st1" d="M204,463l2.3,1.8l0.4,2.5l-1.5,1.7l-0.1,1.6l-2.4,1.4l-1.8,3l-1.3,3.6v1.8l-3.4,1.5l-1.2,4.3l-2.3,1l-1.8,3.3
		l-2.1,1.7l-3.3,0.9l-2.1-0.1l-1.3-1.8l-0.1-3.1l1.3-0.5l1.6-0.9l0.8-1.3l0.3-2.3l0.8-2.3l1.5-1.5l2-1.2l2.6-0.9l0.8-0.7l-1.8-0.6
		l-3-0.1l-2.6-0.1l-2.8-1.4l-1.3,1.7l-1.4,2l-1.5,0.2l-1.2-1.8l-0.9-2.3l-1.7-1.3l-1.1,1.2l-1.1,0.5l-2.8-1.1h-2.6l-4.4,1.4
		l-1.3,0.5l-1-2.4l-0.7-2.9l-0.8-1v-2.1l-3-2.7l0.1-2.8l-1.3-1.5l-0.9-2.6l3-0.4l3.6-0.9l-0.5-1.1l-1-1.1l-1.6,0.9l-1.8-0.6v-1.8
		l0.6-4l-3.5-1.1l-1.3-1.5h-1.5l-0.3,2.3l-1.5-1.3l-1.7-1.3h-1.3l-0.3,1l2,1.3v2.8l-1.4,2.2l-3-0.3l-2.8-2.1l-2.2-1.8l-2-1.1
		l1.1-3.5l-0.7-2.1h-2.6l-1.3-0.3l0.5-2.1v-2.3l2.3-1l1.6-0.5l1.6-0.5l-0.5-2V431l0.5-1.5h1.2l0.5,2l1.7,0.5l1.5,1.3l-0.1,1.6v2.6
		v2.1l1.2,0.5l2.1-2.7l1.3-3.1l0.3-3l-1.7-2.3l-1.2-2.9l-0.7-3.1l-0.1-3.5l1.3-1l1.3,0.3l0.2,1.6v2.3l0.7,1.6l1.3,1.8l0.7,1l3-0.2
		l1.5,1.6l1.7,1.5l1.7,1.8l3,0.1l0.6-2.3V428l-0.4-1.8l-0.1-3l-0.1-3.5l1.6-1l0.5-1.5l-1.8-0.3l-1.5-0.8l-0.5-1.8l0.5-1.8l1.3-1.2
		l3.1-1l0.8-1.3l-0.1-3l1.3-0.7l3.3-0.1l0.1,3.3l-0.3,2.5l2.5,0.6l0.2,0.8l1.7,0.5v1.3l3.8,1.1l-0.3,1.3l-0.3,3.1l0.4,4.3l-0.2,6.4
		L177,436l-0.9,4.1l-1.1,2.8l2.4,5.4l2.4,3.7l0.7,2.8l-3.1,1.5l4.1,0.8l5.8,2.4l0.4,1.5l-0.1,2l2.1,0.3h1.5l0.9,2.3l1.3,1.5l1.5-1
		l2.1-0.7l2.5-0.2l2.3-0.4l1.5-0.4L204,463z"/>
	<path class="st1" d="M204,463l2.3,1.8l0.4,2.5l-1.5,1.7l-0.1,1.6l-2.4,1.4l-1.8,3l-1.3,3.6v1.8l-3.4,1.5l-1.2,4.3l-2.3,1l-1.8,3.3
		l-2.1,1.7l-3.3,0.9l-2.1-0.1l-1.3-1.8l-0.1-3.1l1.3-0.5l1.6-0.9l0.8-1.3l0.3-2.3l0.8-2.3l1.5-1.5l2-1.2l2.6-0.9l0.8-0.7l-1.8-0.6
		l-3-0.1l-2.6-0.1l-2.8-1.4l-1.3,1.7l-1.4,2l-1.5,0.2l-1.2-1.8l-0.9-2.3l-1.7-1.3l-1.1,1.2l-1.1,0.5l-2.8-1.1h-2.6l-4.4,1.4
		l-1.3,0.5l-1-2.4l-0.7-2.9l-0.8-1v-2.1l-3-2.7l0.1-2.8l-1.3-1.5l-0.9-2.6l3-0.4l3.6-0.9l-0.5-1.1l-1-1.1l-1.6,0.9l-1.8-0.6v-1.8
		l0.6-4l-3.5-1.1l-1.3-1.5h-1.5l-0.3,2.3l-1.5-1.3l-1.7-1.3h-1.3l-0.3,1l2,1.3v2.8l-1.4,2.2l-3-0.3l-2.8-2.1l-2.2-1.8l-2-1.1
		l1.1-3.5l-0.7-2.1h-2.6l-1.3-0.3l0.5-2.1v-2.3l2.3-1l1.6-0.5l1.6-0.5l-0.5-2V431l0.5-1.5h1.2l0.5,2l1.7,0.5l1.5,1.3l-0.1,1.6v2.6
		v2.1l1.2,0.5l2.1-2.7l1.3-3.1l0.3-3l-1.7-2.3l-1.2-2.9l-0.7-3.1l-0.1-3.5l1.3-1l1.3,0.3l0.2,1.6v2.3l0.7,1.6l1.3,1.8l0.7,1l3-0.2
		l1.5,1.6l1.7,1.5l1.7,1.8l3,0.1l0.6-2.3V428l-0.4-1.8l-0.1-3l-0.1-3.5l1.6-1l0.5-1.5l-1.8-0.3l-1.5-0.8l-0.5-1.8l0.5-1.8l1.3-1.2
		l3.1-1l0.8-1.3l-0.1-3l1.3-0.7l3.3-0.1l0.1,3.3l-0.3,2.5l2.5,0.6l0.2,0.8l1.7,0.5v1.3l3.8,1.1l-0.3,1.3l-0.3,3.1l0.4,4.3l-0.2,6.4
		L177,436l-0.9,4.1l-1.1,2.8l2.4,5.4l2.4,3.7l0.7,2.8l-3.1,1.5l4.1,0.8l5.8,2.4l0.4,1.5l-0.1,2l2.1,0.3h1.5l0.9,2.3l1.3,1.5l1.5-1
		l2.1-0.7l2.5-0.2l2.3-0.4l1.5-0.4L204,463z"/>
	<path class="st1" d="M482.9,174.5l-1.7-0.5l-1,0.5l-1,1l-1.1,2l-0.3,2.5v1.8l1.5,0.1l1-1.2l1.3-1.2l0.5-1.5l1-1.8L482.9,174.5z"/>
	<path class="st1" d="M482.9,174.5l-1.7-0.5l-1,0.5l-1,1l-1.1,2l-0.3,2.5v1.8l1.5,0.1l1-1.2l1.3-1.2l0.5-1.5l1-1.8L482.9,174.5z"/>
	<path class="st1" d="M403.7,242.5h2.5l-0.7-2.3l1.1-2.7l0.8-2l-1.7-0.5l-0.8,2.8h-1.3l-0.5-2.1l-2,0.2l-1.4,1.8l-2.6-0.6l0.4,1.6
		l2.5,0.3l2.5,0.6L403.7,242.5z"/>
	<path class="st1" d="M403.7,242.5h2.5l-0.7-2.3l1.1-2.7l0.8-2l-1.7-0.5l-0.8,2.8h-1.3l-0.5-2.1l-2,0.2l-1.4,1.8l-2.6-0.6l0.4,1.6
		l2.5,0.3l2.5,0.6L403.7,242.5z"/>
	<path class="st1" d="M421.5,226.1l1.9,3.6l1.2,2.4l-0.8,1.8l-2,0.4l-2.8-0.9l-2.6-0.9l0.2,2.1l-1.2-1.5l-0.2-2l-0.2-2.6l1.3-3.1
		l1.1-0.8l0.7,1.3l1.8,0.8L421.5,226.1z"/>
	<path class="st1" d="M421.5,226.1l1.9,3.6l1.2,2.4l-0.8,1.8l-2,0.4l-2.8-0.9l-2.6-0.9l0.2,2.1l-1.2-1.5l-0.2-2l-0.2-2.6l1.3-3.1
		l1.1-0.8l0.7,1.3l1.8,0.8L421.5,226.1z"/>
	<path class="st1" d="M417.1,218.9l0.5-2l0.8-2.2l0.8-1.3l2-0.7l2.8-0.4l3.1,0.3v-1.2l1.1-0.8l2.3-0.4c0,0,1.3-1.5,1.4-2.2
		c0.2-0.7,0-2.8,0-2.8l-0.4-1.5l-3.6,0.1v1.6l-1.6,1.5l-1.6,2.5l-0.6,0.7l-1.7-1.1l2.3-2.5l-3-0.4l-1.4,2.8l-1.3,1.2l-0.6,1.2
		l-1.5,1.5l-1.6,0.7L414,216l-0.1,1.6l1.2,1.5L417.1,218.9z"/>
	<path class="st1" d="M417.1,218.9l0.5-2l0.8-2.2l0.8-1.3l2-0.7l2.8-0.4l3.1,0.3v-1.2l1.1-0.8l2.3-0.4c0,0,1.3-1.5,1.4-2.2
		c0.2-0.7,0-2.8,0-2.8l-0.4-1.5l-3.6,0.1v1.6l-1.6,1.5l-1.6,2.5l-0.6,0.7l-1.7-1.1l2.3-2.5l-3-0.4l-1.4,2.8l-1.3,1.2l-0.6,1.2
		l-1.5,1.5l-1.6,0.7L414,216l-0.1,1.6l1.2,1.5L417.1,218.9z"/>
	<path class="st1" d="M409.2,212.1l2.4,4.4l0.5,3.1l-0.1,2.1l-0.6,2.1l1,2.4l-0.6,0.5l-2.8-0.4l-0.7-1.5l-0.4-1.5l-1.5-1.5V220
		l3-0.1v-1.3l-1-2.1l-0.9-2.5l0.3-2L409.2,212.1z"/>
	<path class="st1" d="M409.2,212.1l2.4,4.4l0.5,3.1l-0.1,2.1l-0.6,2.1l1,2.4l-0.6,0.5l-2.8-0.4l-0.7-1.5l-0.4-1.5l-1.5-1.5V220
		l3-0.1v-1.3l-1-2.1l-0.9-2.5l0.3-2L409.2,212.1z"/>
	<path class="st1" d="M433.3,199l0.8-2l1.1-1.5l-0.2-1l-3.5-0.9l-1.1,0.8L430,197l1,2.4l0.2,1.6l1.6,0.1h1.5L433.3,199z"/>
	<path class="st1" d="M433.3,199l0.8-2l1.1-1.5l-0.2-1l-3.5-0.9l-1.1,0.8L430,197l1,2.4l0.2,1.6l1.6,0.1h1.5L433.3,199z"/>
	<path class="st1" d="M399.3,193.7l1.8,0.6l0.7,3.9l-0.6,2.1l-0.8,1l-2.3-0.1l1.1-1.5l0.3-2v-1.2L399.3,193.7z"/>
	<path class="st1" d="M399.3,193.7l1.8,0.6l0.7,3.9l-0.6,2.1l-0.8,1l-2.3-0.1l1.1-1.5l0.3-2v-1.2L399.3,193.7z"/>
	<path class="st1" d="M396.6,196.9l-1.8,0.5l-0.4,2.8l-2.3,1.4l-3.8,1.1l0.7,1.1l1,0.3l1.5,1l0.9,2.6l1.5,2.9l1.7,0.6l0.6-1.2
		l-0.9-2l1.3-0.8l1.2,1.3l1.7,1.1l1.5,2.8h2.3l1-1.8l-1.2-2.1l-1.2-0.1l-1.5-2.3l-1.3-1.6l-1.7-0.6l-1.2-0.8l-0.1-3l1-1.3
		L396.6,196.9z"/>
	<path class="st1" d="M396.6,196.9l-1.8,0.5l-0.4,2.8l-2.3,1.4l-3.8,1.1l0.7,1.1l1,0.3l1.5,1l0.9,2.6l1.5,2.9l1.7,0.6l0.6-1.2
		l-0.9-2l1.3-0.8l1.2,1.3l1.7,1.1l1.5,2.8h2.3l1-1.8l-1.2-2.1l-1.2-0.1l-1.5-2.3l-1.3-1.6l-1.7-0.6l-1.2-0.8l-0.1-3l1-1.3
		L396.6,196.9z"/>
	<path class="st1" d="M392.1,220.8l-2-2.6h-1.6l-1.1,1.2l0.2,2.8l0.7,2.1l2,1.1l2.8,2.1l3.5,0.3l1-1.7l-0.2-3l-2.5-1.3L392.1,220.8
		z"/>
	<path class="st1" d="M392.1,220.8l-2-2.6h-1.6l-1.1,1.2l0.2,2.8l0.7,2.1l2,1.1l2.8,2.1l3.5,0.3l1-1.7l-0.2-3l-2.5-1.3L392.1,220.8
		z"/>
	<path class="st1" d="M400.2,226.6l0.8-2.2l-0.5-2L399,224l-0.1,1.6L400.2,226.6z"/>
	<path class="st1" d="M400.2,226.6l0.8-2.2l-0.5-2L399,224l-0.1,1.6L400.2,226.6z"/>
	<path class="st1" d="M156.1,315.1l3.8-1.7l3.7-2.4l3.6-3l0.6-0.7l3.8,0.3l0.1-1.8l1.8-3.2l2.3,0.3l0.4,4.1l2.2,1.1l0.4,1.8l-1,0.3
		l1,7.9l-2.6,2l-0.3,2.1l1.3,1.6l2,1.3l-1.6,2l-1.5,1.5l-0.8,1.7l-1.8,0.2l-3.1,2.7l-0.6,2h-1.5l-2.4,4.6l2,1l2.5,0.3l2.5,0.3
		l1.3-0.5l0.8-1.7l0.8-2l2.4-1.1l2-0.8l-0.9,5.1l-2.9,3.6l-0.6,1.6H173l-0.8-2l-1-1l-3.4,1l-3.9-2.5l0.9,4.8l-3,8.6l-6.6,1.8
		l-0.8,2.2l3.6,1.1l3.4-1.5l0.8,0.3l0.4,4.1l1.5,3.6l-3.6,3l-1.2-0.5l-0.5-1.8l-1.5-0.3l-0.6,0.8v1.8l0.1,5.8l-1,1l-2.4,1.7L152,380
		l-2.8-0.8l-0.5-1.1l-5.6-2l-0.9-1.8l-0.8-7.7l-1.8-0.6l-0.3,3.8l0.4,4.6l0.6,5.9l1.4,4.6l-1.8,0.2l-2.7-2.3l-3.1-0.1l-1.3,1.8
		l1,2.4l2.7,1.8l0.4,1.3l-3.3,0.1l-0.5,1.5l-4.8-2.5l-0.1,2.8l-3.2,3.7l0.9,3.4h-2.8l-1.6,4.3l-1.8-1.1v-2.1l-1.3-0.6l-1.5-2.8
		l-2.4-2.9l-5.3-3.9v-1.5l8.8,1.8l1.4-2.3l2.9-0.9l3.6-1.2l1.1-1.2l-0.7-2.5l0.1-1.2h2.1l2.1-1.4l-0.4-2l-2.2-1.6l-4.3-0.9l-1.7-1.3
		l-3.3,0.2l-2.2-1.9l-1.3-1.8l-0.1-3.9l1.5-1.2l1-1.8l-3.4-4.5l0.3-1.2l-3.2-6.2l0.1-2.1l2.8-1.4l1.2-4.6l2.5-0.2l1.9-1.5
		c0,0-0.9-1.8-0.9-2.3s0.4-3,0.4-3l0.8-1l0.4,1.3l3,0.4l1.3,0.8l0.1,4.3l3.4,4.5l2.2-4.5l-1.2-4.4l-0.2-3.8l1.8,0.5l1.9,3.1l1.5,1
		l2.9,3.2l0.9,3.9l1.1-4.6l-3-3.6c0,0-0.4-2-0.4-2.5s0.8-1.8,0.8-1.8l1-1.7v-2.1l0.8-1.5l2.4-2.5l3.1-1.4l3.9-0.6l2.3-1.4l2.5,1.1
		l2.2-4.5L156.1,315.1z"/>
	<path class="st1" d="M174.6,541l2.3,0.9l1.2,4.1l4.2,4.7l3.6,7.2l3,0.8l2.9-0.7l3.1,0.1l3,0.4l2.8,2.3l1.4,4.9l2.5,0.5l1.8,0.6
		l-0.1,1.8l-0.1,3.6h-1l-0.5-1.1l-1.2-0.5l-1,1.7l-3.3,1.9l2.7,1.3l-1.1,1.2l-2.6,1.5l-3.2,2.5l-2.1,2.3l-0.1,1.8h-2.5v-2.1l-0.3-1
		l-2.3,0.2l-2.5,0.7l-0.5,1.5l-6.7,0.4l-0.1,1.8l-4-0.6l-3.4,2.2l-3.3-0.1l-1.4,1.8h-1.5l-0.3,2.3l-3.1,0.2l-1.5-1.1
		c0,0-0.4-2.3-0.4-2.8s-0.9-2.5-0.9-2.5l-2.7-4.4l0.6-1.3l2.1,0.5l2.7,2.4l2-1.4l3.8-1.4l4.3-1.4l2.5-0.4l3.5,0.6l4.1-1.6l0.1-1.5
		l-4.3-0.1l-2.8-0.1l-3.6,0.2l-2.3,1.5l-1-1.1l1.1-1.7l1-0.8l0.8-2.5l0.9-2.6l2.6-1.7l4.3-1.6l3.4-2.2l1.3-1.2l-6.4-1.4l-3.5,0.1
		l1.3-1.2l-3-0.6l-0.7-1l-4.6-1.1l-4.3-0.6l-3-1.6l-0.2-0.8l3.1-2.2l-0.9-4.6l6.1-0.9l-0.1-3l2.1-0.5l2.8,0.1l1.8-2.3L174.6,541z"/>
	<path class="st1" d="M196.7,611.7h-1.8l-3.4,2.2l-2.9,1.2l-0.9,3.1l-1.6,0.2l-2.1,4l-4.4,2.9v0.8l5,1.2v2.1l-3,0.4l-2.1,1.4
		l-3.1,1.7l-3.2,4.5l-1.2,4.8h2.6l1,3.3l1.7,3.6l1.4,3.6l3.1-2l1.9-2.7v-2.1l0.1-1.5l3.7-2l0.6-2.6l0.3-2l3.1-3.3l-1.8-1l1.9-4.6
		l1.9-3.8l1.7-3.5l2.2-3.3l2.6-1.9l1-1.7l-0.7-3.1l-1.5-0.6L196.7,611.7z"/>
	<path class="st1" d="M163.2,633.5l2,1l4.1-1.6l-0.6,3l-0.3,2.3l1.2,5.2l1.2,5.2v2.8l3.9,3.9l0.8,6.4l0.2,4.1l-3.4,0.6l-6.4,0.6
		l-0.9,3.5l-3.1,2.9l-2.6,3.3l-5.4-0.6l-1.7-1.8v-1.8l3.3-0.1l0.1-1.3l-1.3-1.3v-1.3l3.8-1.5l-0.4-1.5l-1.7-1.1l0.1-2.5l-1-1.5
		l0.8-2.5l3.6-3.7l-1.7-1.9l-2.8-0.9l-2.7,6.6l-2.4,1.2l-3.1,2.2l-1.4,2.8l-0.5,0.5c0,0-2-0.1-2-1c0-0.8-0.5-2.5-0.5-2.5l0.1-1.5
		l0.3-4.1l2.1-2.3l0.6-2l-0.1-3L145,646l1.4-1.8l0.8-3.1l6.9-1.1l-0.3,1.8l0.5,3.1l2.3-0.2l0.5-2.3l2-0.5l1.3-2c0,0,1.3-0.8,2.1-0.9
		c0.8,0,1.6-1.8,1.6-1.8L163.2,633.5z"/>
	<path class="st1" d="M79.6,416.6l4.7-2.2l0.9-3.5l0.6-1.5h1.5l1.9,2.4l3.1-1l1.6-3.3l2.1-0.2l-1.1,1.5v1.8l1.8,0.3l2.8-1.2l2.6-1
		l3.6-1.1l1.5,1v1.3l2.3,1.3l2.5,0.3l0.7,1.6l-2.1,0.9l-3-0.4l-1.3,1.2l0.8,1.3l1.5,1.5l1.5,1.5l0.5,2l-1.5,0.2l-1.8,2.8l-1.5,1.7
		l-0.6,3.5l-0.3,1.3l-1.8-0.6l-1.5-1.3l-2.6,0.2h-2.3l-1-0.3l-1-1.6l-1.5-2.9l-1.7-0.5l0.1-4l-2.9,0.7l-1.6,0.9l-2,0.4l-1-1.6
		l-1.2-2.1L79.6,416.6z"/>
	<path class="st1" d="M94.6,427.2h-1.8l-2.2-1.9l-1.1,1.3l1.7,2.1l0.2,2.5l3-0.4l1.3-1.5L94.6,427.2z"/>
	<path class="st1" d="M89.6,432.6l3,0.4l3,0.4l3,0.6l3.3,1.6l1,1.3l-0.6,0.8L100,438l-0.3,1.2l1.3,1.1l2.1,0.1l1.5,0.3l-0.5,1.5
		l-3.3,0.4l-3.1-0.4l-3.1-0.9l-2-1.4l-2.6-0.6l0.1-2.3v-1.8L89.6,432.6z"/>
	<path class="st1" d="M94.4,443.7l1.2,0.3l1.3,1.1l-0.3,3.3l0.2,1.8l1.7,0.5l1,0.5l1.7,1.8l1.5,2.3l1.2,2l-1,1.2l-1.5,1.7l-0.8,2.6
		l-1.5,0.7l-1.3-0.5l-1,0.3v1.6L98,467l-0.3,3l-0.7,4.5h-2.1l-0.6,1.2c0,0,0.2,1.1,0.7,1.1s2.8,0,2.8,0l1.6-0.4l2.2,0.9l0.8,1.3v1.6
		l-2.3,0.2l-2.3-1.1H95l-1.8,1l-1.6,1l-1.3-0.1l-1.5-3.4l-0.9-4.1l-0.1-4.9l-0.8-8l0.3-2.8l1.1-2.7l0.3-2l-0.5-2.3v-2.3l-0.7-1.8
		l1.3-1.5l1.3-1l2.1-0.5L94.4,443.7z"/>
	<path class="st1" d="M95.5,481.8l-1.1,1.3v2.1l0.4,2.1l2.2,1.1l1-1.5l-0.2-2.8l-1.2-1.8L95.5,481.8z"/>
	<path class="st1" d="M86.6,486.1l-2,0.4l-2.3-0.5l0.4,2.8l-1.6,1.5v2l-2.3,0.5l-0.5,1.8l-0.1,2l-1.8,0.2h-2l-0.3,1.5l2,0.6l2.8,0.3
		l2.3-0.2l3,3.4l0.9-3.3l5.1-1.7l-2.7-2.3l-1.2-3.9L86.6,486.1z"/>
	<path class="st1" d="M74.3,501.3h2.3l3.8,0.3l0.5,0.6l-1,1l-2-0.1l-1.5,0.5l-1.7-1.1L74.3,501.3z"/>
	<path class="st1" d="M80.7,506.9h-2l-1.8,1.7l0.5,1.5l1.3,1.8l0.5,2.3l1.1-0.5v-1.6l-0.2-2L80.7,506.9z"/>
	<path class="st1" d="M73.7,511l0.7,1l1.3,1.5l0.8,0.6l-1.5,0.5l-2.1,0.4l-1.5-1.3v-2.1l2.1-1L73.7,511z"/>
	<path class="st1" d="M69.6,513.9l-1.9,1.5l-0.6,2.1l-0.1,2.3l1.5,1l1.8,0.5l-1-2L69,517L69.6,513.9z"/>
	<path class="st1" d="M110.3,368l1.6-0.2l1.8-1.3l0.1-2.3l-1.5-1.5l-1.6-0.1l-1.5,0.4l-1.1,1.2l0.5,2L110.3,368z"/>
	<path class="st1" d="M121,382.3l-0.7-2.8l-1.3-0.8l-1.8,0.5l-1.9,1.8l-2.6,2.3l-0.1,1.6l2.3,0.6l2.9-1.9h2.1l0.1-1.6L121,382.3z"/>
	<path class="st1" d="M101.2,392.9l-0.1,1.6l-1.4,3l3.6,1.6l0.5-1.2l1.6-0.2l-0.9-2.6l-2-1.4L101.2,392.9z"/>
	<path class="st1" d="M106.7,403.7l1.6-0.5l2.3-0.5l1.6-1l-0.4-2l-1.8-0.3l-1.8,1h-2.1l-0.8,2L106.7,403.7z"/>
	<path class="st1" d="M188.2,428.2l0.5-1.5l-0.4-2l0.8-2.3l1.1-0.5l0.8,0.6v2.1l-0.3,2.1l0.7,1.6v1.6l-1.6,0.7l-0.8-1.1L188.2,428.2
		z"/>
	<path class="st1" d="M190,436.4l-2.3-0.6l-2.4,1.9l-1.6,1.3l-2.4,1.5L181,443l0.1,3.9l1.1,3.8l1.2,3.4l2,0.8l0.9-2.3l0.9-2.6
		l-0.2-1.3l-0.3-1.1l0.3-2.1V444l-0.9-2.8l-0.7-1.5l2.1-0.5l1.9-1.5L190,436.4z"/>
	<path class="st1" d="M141.8,490.1l-0.4-1.6l2.5-0.9l3.1-1h1.6l2.5,1.1l2,1.8L153,491l-0.8,1.3l-2.2-1.1l-3.1-0.8l-3.1-0.4
		L141.8,490.1z"/>
	<path class="st1" d="M163.7,504.2l1.3-2.3l1.4-3.6l1.4-2.5l-0.4-3.1l-3-2.6l-3.1,0.1l-2.6,0.7l-3.1,3l-2.8,0.7l-0.3,2.6l1.8,0.6
		l2.2,2.3l1.2,2l1.8-0.7l1.2,0.1l1.8,1.8L163.7,504.2z"/>
	<path class="st1" d="M175.9,503.6l1.7,2.9l-0.3,2.1l-2.1,3.8l-2.6,0.7l-2.8-0.9l1.1-2.7l-2.2-1.6l2.8-0.9c0,0,1.1-0.8,1.6-1.2
		C173.6,505.6,175.9,503.6,175.9,503.6z"/>
	<path class="st1" d="M170,517.4l-2-2.3l-2.3,0.2l-1,1.5l0.4,2.1l2.3,0.1L170,517.4z"/>
	<path class="st1" d="M196.9,669.8l1.6-4.7l0.2-3.5l-1-1l-1.5,1.3l-0.9,2.7l-0.7,3.5l0.5,2.2L196.9,669.8z"/>
	<path class="st1" d="M171.4,608.5l-1.5-0.5l-5.1,4.5l-3.4,0.6l-0.4,3l-2.9,2l3.2,0.9l4.9-0.3l2.7-0.5l-1-1.7l0.4-3l1.4-3.2
		L171.4,608.5z"/>
	<path class="st1" d="M203.3,601.8l-1-1.5h-2.7l-0.9,2.7l-0.2,2.7l1.3,2.2l2-0.3l0.7-1.7l0.2-2L203.3,601.8z"/>
	<path class="st1" d="M376.2,758.2l-0.1-2.6l1.4-3l2.7-2.3l4.4-0.1l3.5,1.9l5.6-2.1l5.1-3.5l3.6-4.5l6.1-3.6l5.1-4.3l6.1-5.8
		l3.1-4.7l4.1-5.7l4.9-4l5.8-6.8l4.8-6l6.3-5l4.7-1.1l-4.6-6.6l-2.8-5.6l-3.1-5.1l-1.5-3.9l5.7-1.3l3.7-0.8l0.2-2.2l2.1-4.5
		l2.4-4.5l3.9-2l-1-3.2l0.7-2.7l3.7-2.3l-2.7-3.9l0.6-3.3l-4.3-2.9l-1.7-3.6l-2.3-1.6l-2.6,1.4l-3-1.6l-4.6,0.4l-1.6,0.4l-1.3-1.3
		l-3.4-5.5l-13.3-6l-9.6-5.1l-6.9-0.5l-2.2,4l-2.3,3l-4.9,1.1l-1.6,3.3l-1,2l-9.9,0.5l-3.7-1.9L375,629l-6.6-1.9l-7.6-1.2l-8.3-1.8
		l-10.3-4.1l-1-2.3l3.3,1.9l6.2-1.8l2.3-1.4l2,2.6l5.3,1.2l12.2,0.4l2.3-3l0.3-2.3l13-7.5l-0.4-2.6l5.9-3.4l-0.1-3.6l4.2-2l2.4,2.9
		l6.9,0.5l4.6-0.4l1-2l1.3-3l4.6-2.7l3.5-4.3l-1-1.3l-5.3-2.5l-5-2.5l-5-1.9l-2-2.3l2.6-1.7l0.3-3l-1.4-3.9l-5.3-0.6l-4.6,0.4
		l0.4,2.6l-5.9,1.4l-5.2,4.4l-3.6,3l-7.9,2.1l-8.2-0.5l3.6-2.4l6.9-1.1l7.5-5.1l5.2-4l5.9-3.7l7.2-0.8l8.9,0.5l4.9-2.1l1.6-2
		l5.2-5.7l4.9-3.7l1.9-4.3l-0.8-6.2l0.3-3l5.2-2.1l-2.7-1.6V531l2.5-5.6l6.9-2.4l1.6-2l-0.1-3.9l3.6-2.4l2.6-2.7l0.3-4l-0.4-4.9
		l1-1.7l4.2-4l0.6-3.6l3.2-7.6l3.5-4.3l-2-2.3l-2-3.6l1.5-5.6l2.9-3.7l0.2-4.6l3.6-3.7l3.2-5.6l3.9-1.7v-2.6l2.6-4.7l2.5-5.3
		l-1.1-6.2l-0.4-5.6l-4.1-7.5l-1.1-5.2l-4-0.9l-4.3-2.9l-7.6-1.5l-2.3,2.3l-5.3,0.8l-4.7-3.2l-2.3-0.9l-0.3,3l-5.6,2.1l-7.2,0.8
		l-6.6-1.9l-5.9-0.9l-8.5,0.5l-3.3-2.6l-3.9,1.1l-1.9,3l-4.9,0.7l-9.9-0.2l-8.6-5.1l-1.7-1.9l-2.9,2l-1.6,2l-7.6,0.1l-0.6,2.3
		l-4.9,0.7v2l1.7,2.3l-3.6,0.7l-3.3-2.2l-2.3-0.6l-1.9,3.7l-3.6,3.4l-3.6,0.4l-5.2,1.1l-2.9,1l-3.3-2.9l-4.6,2.4l0.4,3l-3.2,2.4
		l-2.2,3.3l-1,1.3l-5.6,1.7l-4.3,0.4l-2.6,1.4l-5.3,0.4v-2l5.9-0.8l5.9-1.1l1.3-3.3l0.9-2.3l3.9-0.4l1.3-3.6l-0.1-3.6l4.6-2.4
		l1.9-2.7l-2-2.3l-5.2,3.1l-0.7-2.9h-2.6l-2.6,1.7l-3.6,2l-2.6,2.7l-5.2,5l-1.7-1.9l1.9-1.7v-2.3l1.9-1.7l1.2-4.3l3.6,0.9l3.9-1.4
		l5.6-1.4l0.3-3.6l4.9,0.2l4.2-1.7l0.4,2l-0.6,3.4v0.2l7.8-4.7l1.6-2l0.3-4l7.4-9l-1.4-2l-8.8,4.8l-3.3-2.9l-5.6,0.4l0.1,3
		l-6.3-2.2l-0.7-2l-3-0.9l-5.6,0.1l-7.3-3.5l-0.3-1l8.3,1.5l4.3-0.4l6,2.5l4.6-2.4l3.3-0.1L325,384l-4-2.6l1.2-4l3.7,2.2l7.2-3.7
		l2.6-3.7l0.9-2.3v-1.6l1.6-0.7l2.6-4.7l3.9-1.4l1-2l4.2-2.7l3.6-2l3.6-3l1.2-4l3-0.4l0.6-4.3l4.9-2.4l2.6-3.3h2.3l4.2-2l2.6-1.4
		l3.2-6l3.6-2l1.9-5h1.6l0.5-7.2l-1.7-1l-3,0.1l-1.7-0.3l0.6-3.6l2.2-5.3l1.3-1.7l0.2-5.3l4.6-2.1l-0.1-3.9l-8.9,0.2l-2.3-1.9
		l-2.9,1l-5.6,0.1l-0.9,2.3l-2.4-3.2l-2.9,2.7l2.7,2.9l-2.3,1.4L358,295l-4.6,1.1l-5.6-1.9l-2.2,3.7l-3.9,0.4l-0.6,3l-9.6-0.5
		l-4.4-4.2l-4-2.9l-1.9,2l2,2.6c0,0-1.2,4.6-2.9,4c-1.7-0.6-3.3-1.3-3.3-1.3l-3,0.1l-4.3,0.4l-0.9,3l-3.3,1.7l-3-3.2l-2.3,0.7
		l0.8,5.3l-6.8,8.3l1.2-4l-0.8-6.6l2.2-3.3l-0.7-3.3l-3.3-0.6l-4-1.6l-2.6,1.7l1.4,2.9l-2.6,3l-0.6,4.6l-5.3,0.8l-3.2,4.7l0.6-4
		c0,0,2.9-5,3.9-5s1.6-3.3,1.6-3.3l-4.3-2.6l-1.7-4.2h-2.6l0.4,4.9l-2-1l-1.4-4.9l-3.6-1.3l-7.9-1.2l-2.2,7.3l-3.2,4.3l-1.9,1.7
		l2.4,4.9l-1.3,3.3l2,3.6v2.3l-4.6-1.6l-0.4-1.3l-1.9,6.9l-2.6,2.7l3.7,6.8l7.3,0.9l1.4,3.3l2,2.3l-1.6,1l-5-2.2l-6.3-0.2l-6.9,1.1
		l-7.6-1.8l-1.9,3l3,2.6l2.7,1.3l0.1,4.6l2.7,1.9l-1.3,2.3l0.1,7.2l-5.9,0.1l-0.7-3.9h-1.6l-1.2,5l2,3.6l3,2.3l1.1,6.6l3.3,0.6
		l2.3-1.4l2,3.6l4.7,7.5l3.3,2.9l0.1,4.6l-2.4-2.3l-3-1.6l-4.4-4.5l-6-2.5l-3.7-3.6l-2,0.4l0.4,4.3l4.3,2.9l5,3.9l-0.6,2.6
		l-9.7-6.7l-3,0.4l-0.9,4.6l-2.7-1.6l-0.7-3.6l-3.7-3.6l-3,0.1l0.1,5.9l-1.6,2.7l2.4,3.6l1.1,3.6l-1.6,0.4l4,5.5l1.7,2.3l3-0.1
		l2,3.9l3.4,4.9l4.3,2.9l-6.6,0.1l-3.7-4.2l-4.3-1.2l-2.4-6.5l-3.4-4.2l-1-2l-0.4-5.3l-2.3-0.6l1.3-2.7l-2.7-4.9l-1.9,2.7l-3.6-0.3
		l-0.8,8.2l-1.9,6l3,0.3l6,3.2l2.4,3.9l-5.3-2.9v1.6l-3.9,0.1l0.1,3l-2.6,2.7l0.7,1.6l3.6,0.6l0.4,4.6l3.7,3.6l4.6,0.9l4,2.9
		l1.7,1.9l-7.6-0.9l-6.3-1.5l-2-2.9l-2.6,0.7l0.1,4.9l-3.5,5.3l0.1,5.6l2.9-1.4l0.8,7.2l2.7,5.2l6.3-0.1l2.2-4.6h2.6l-0.3,3.6
		l2.3-0.7l3.6-1.7l3.2-4.3l1.7,1.6l-1,2l-2.6,2.7l-4.2,2l-6.2,2.1l-1.9,2.3l-3.9,2.4l3.4,3.9l2.7,2.3l4.6-1.4l3.9-0.1l2.7,1.9
		l3.6-0.1l0.1,3.3l-8.6-2.5l-2,1l-1.6,1.7l-3.6,1l-0.9,2.3v2l3,3.2l4,3.9l3.4,3.6l-2.3,1l-4.3-3.2l-4-3.6l-0.3,3L205,484l-1.9,5.3
		l-0.9,2.3l4.7,4.2l5.6,1.9l4.2-0.3l1.4-0.1l-7.5,2.1v2l5.6,2.2l-5.9,2.1l-7.2,0.1l-2.3-1.3l5.9-3.7l-1.1-3.6l-4.3,0.7l-3.9,0.1
		l-1.6,3l-0.3,3.3h-2.6l0.4,4.6l-0.3,2.3l-3.6-0.9l3.3,3.2l4.3-0.1l3.6-0.1l3.3,3.2l-2.9,0.7v2.6l-2.9,1l-1.8,8.3l-5.6,0.8
		l-1.4-2.6l-2.3,0.4l-1,1l-7.3-1.5l-4.6,2.1l-4.5,4l0.4,2l5.6-0.1l5,1.6l4,0.3l3.6-0.7l4.3,1.6l5.3,0.6l-2.3,1.4l-4.9,2.7l-4.9,0.1
		l-3.6-0.6l1,2.9l3,3.2l1,2.6l4.3,1.9l0.4,1.6l6.6,1.9l4.6,1.9l5.3,3.9l-0.1-3.3l6.2-3.1l5.2-3.1l-0.8-5.3l3.3-0.4l5.2-2.7l1.9-2.7
		l-0.7-3.9l2.9-1.4l5.2-1.1l2.6-1l0.7,3.9l-1.9,1.7l-2-1.3l-0.6,2l-2.6,2l-1.6,3l-2.6,4l-1.6,3l-1.9,3.3l1,2.3l2.6-0.4l2,1.6
		l-4.3,1.4l-5.2,1.4l-2,0.4l1,1.6l1.7,1.9l4.3,0.6l4,0.3l4.6-0.1l4.6-1.7l3.6-2l-0.9,4l-4.2,2.4l-5.6,0.8l-5.9-0.2l-5.3-0.9
		l-5.1,8.6l-0.6,5.9l-3.9,1.7l-3.3-0.3l-2.6,4.3l-1.9,6.9l0.7,3.6l1.3,0.3l1.9-2.7l0.6-5.6l2.3-0.4l2.7,1.6l2.6-0.7l1.7,1l-3.9,2.4
		l-1.3,3l-1.9,2.7l2,2.9l-1,1.3l-2.3,2l0.1,4.9l2,0.3l-0.3,3.6h-2.6l-0.9,4h-2.3l-1.9,4l-2,0.7l-1.8,7.9h1.6l1.6-5l6.5-3.4
		l-3.2,4.3l-1.2,4.3l-2.9,4.3l1.6,0.3l1.3-1.7l3.6-0.1l-3.5,6.3v2.6l-4.5,3.4l-0.3,2l7.3,3.8l2.6-1.7l2.3-3h1.3l0.1,3.3l-5.5,5.7
		l-2.9,3.3v1.6L201,665l-1,2l1.4,6.6l-1.6,3.6l-2.6,1.4l-0.6,2.6l1.4,2.6l0.4,5.6l0.1,5.6l-2.3,2.3l-0.3,2.6h-2.6l-1.5,5.6
		l-0.6,3.6l2.4,4.6l5.3,0.9l5.9-0.8l2.2-4.6l1.9-2l1.9-4.6l-0.1-3l-2-1.9v-1.3l3.3-1.7l0.6-4l-0.1-3.3l2.9-3l-1.1-4.6l1.3-3.3
		l-0.1-3.9l0.9-5.3l2.6-4.7l4.2-4.4l3.6-4l-0.1-3.9l-1.1-4.9l-1-2.3h-2l-0.1-6.3l-1.7-3.6c0,0-0.4-2.6-0.4-3.6s-0.7-3.6-0.7-3.6
		l0.2-4.9l3,0.9l3.3-0.7l1.6-2.7l3.9-4.3l2.9-4.7l5.9-4.1l3.5-5.7l4.9-3.7l6.9-3.4l-3.2,5.6l-4.2,1.7l-1.9,3.7l-2.6,0.7l-0.6,2.6
		l-4.6,1.7l-0.9,3.6l-3.5,5l-2.3,0.4l-1.6,4.3l-2.6,3.3l-2.6,2.7l1.7,2.6l0.1,3.6l0.4,5.6l2.4,4.6l4,1.2l4.6,0.9l1-1.3l-2.7-2.6
		l-3.7-3.2l0.6-2.3l4.3,2.9l3,1.6l1.1,7.9l0.7,4.9l2,0.6l1.7,4.9l2.7,2.3l0.2-5.3l2.2-4.6l-1.4-4.3c0,0-1.7-1-2.3-1.9
		c-0.7-1-3.4-4.9-3.4-4.9l-3-4.2l-3-1.9l2-1l2.7,1.3l1-0.3l0.9-5h2l-0.3,4l0.1,3.3l2.7,2.6l2,1.3V639l2.9-1.4l1.9-3.3l-0.4-3.3
		l-2.1-5.2l5,2.2c0,0,1-1.7,0.9-3c0-1.3,0-1.3,0-1.3l-0.4-2.6l0.6-3.3l-0.4-4.3l0.6-3h1.6l0.1,3l1.7,0.6v2l-0.6,3.6l-0.2,4.6
		l0.1,4.6h2l0.9-3.3l-0.1-3.3l1.3-0.7l1.7,2.9l2,1.6v2l-1,1.3l5,1.6l3.3,3.2v1.6l-5.3-1.6L268,633l-4-0.3l-2.6,1.4l-1.9,4l-1.5,5.6
		l-0.2,5.6l0.4,5.3l-3-0.6l-1.3,3.3l-0.6,2.3h2l1.3-2.3l1.7,1l0.1,4.3l-0.9,4l2.3,1.9l1.7,1l0.7,3.9l4.3,0.9c0,0,1.3,1,2.3,1.3
		s4.3,3.2,4.3,3.2l0.7,2.3l-0.6,3.6l2,3.3l-0.6,4l-0.6,5.3l-3.3,2l-3.9,0.7l-1.3,1.7l0.1,3.6l0.1,3l-3.9,1.1l0.1,4.6l-1.9,6.6
		l-2.9,3.3l-1.6,1.3l-0.9,4.3l-3.9,4l-2.2,4.6l-1.9,4.6l-1.9,6l0.8,7.9l0.4,5.6l-4.1-10.1l-2.3,1.4h-2.3l-0.3,4.3l-0.8,11.2
		l3.7,4.2l3.1,5.5l6,3.8l3.5,14.1l3.4,3.9l1.2-6.3l-3.1-8.8l-0.8-7.9l1.6-3.3l4.9-3l3.4,4.5l8.9,2.8l3.4,4.2l5.3,1.2l6,6.1l4,3.5
		l1,0.3l3.3-2l0.3-3.3l-0.1-5.3l-0.8-8.9l-3.7-4.9l0.3-2.3l3.5-4.7l0.7,5.3l4.4,5.8l2.3,2.3l1.6-3l3.5-5.3l-0.2,4.9l0.4,4.9
		l2.7,3.9l4.3,1.2l1.3-0.7l-1-2.6v-2.6h2.6l2,2.6l-1.6,2l1.7,2.3l1.9-2l5.6-1.4l3.6-3.7v-1.6l2.3,0.6l2.3-2.3l-2-2.3l0.9-3l3.9-2.4
		l-0.9,3.3l2.6,0.6l3.3,0.6l1.3-2.3l2-0.7v1.3l5.3,0.9l2.6-2l0.6-3.6l-1.7-2.6l-2-0.3l-0.4-2.6l0.9-2.6l2,0.3l4.3,2.6l4,0.9l1-1.3
		v-2l1.6-1l3,2.6l5.3-0.7l3.3,0.3L376.2,758.2z"/>
</g>
<g id="wales">
	<path class="st1" d="M310.6,975.8l-2.3-0.1l-5.3,0.6l-5.8,1.1l-1.5-2.7l-2.2-3.2l-2.3-0.6l0.4-2.3l-0.1-3.4l-1.7-2.2l-2.6-1.9
		l-2.3-0.1l-3.1,0.1l-3,1.2l-2.6-1.6l-0.3,1.5l-2.7,0.5l-4,2.2l-0.3,1.9l0.7,3.4l-0.6,2.9l1.7,4l-0.9,3.2l1.8,2.9l0.2,3.9l1.5,2.7
		l2.3,1.9l0.5,1.9l1.8-0.7l3.9-0.4l-0.9,1.8v1.8l0.8,1l2.1-0.5l1.6-0.7l1.7-1.6l1.3-1.3l3.2-2.5l2.4-2.1l2.4-1.7l1.4-1.5l1.6-2.1
		l2.5-2.5l2.9-2.3L310.6,975.8z"/>
	<path class="st1" d="M269.9,985l-1.7-3.2l-2.1-2.9l-1.8-1.6l-3.4-0.6l-3.5,0.2l-3.5,0.2l0.2,1.6l1.3,2.1h1.6h2.1h2.3l2.4,0.3
		l2.1,2.9l0.7,2.9l1.3,1.1l0.9-1.3L269.9,985z"/>
	<path class="st1" d="M420.2,1174.7l-1.8-16.3l-2-2.2l-6.5-2.8l-2.6-2.5l-1.7-6.4l-2.9-1.2l-2.9,2.6l-4.9-2.2l-3.9-3.5l-2-4.5
		l-1.4-6.1l-2.3-1.9l-2.6-2.9v-2.6l0.3-3.9l2.5-3.9l1.6-2l0.9-3.9l-0.7-3.5l1.5-3.9l1.8-5.5l2.9-1.3l2.6-1.7l0.3-3.6l-2.3-0.3
		l-3.2,2l-4.2,0.4l-2.9-1.6l-4.6-3.5l-4.6-2.5l-2.6-1.2l-1.3-1.9l0.3-1.9l2.9-1.3l4.2-2.3l4.8-2l4.5-3.3l1.9-2.9v-2.6l-5.8,0.1
		l-1.7-3.5l-0.1-4.5v-2.6l2.5-4.9l3.2-3l-0.1-4.5l-0.4-3.5l-2-1.3l-5.8,0.7l-1-3.9l0.3-3.2l1.2-3.9l2.2-2.6l4.8-1.4l4.2-2.3
		l4.5-0.1l4.2-0.4l2.3,3.5l3.5-0.4l1.9-4.2l0.9-5.8l-4.5-1.5l-5.2-3.1l-1.7-2.2l-0.4-4.2l2.5-2.6l0.2-4.2l-3.3-3.8l-6.5-4.4
		l-4.6-2.5l-6-3.2l-4.8-1l-4.3-3.2l-4.9-2.2l-2.3-3.8l-2.6-1.6l-4.5,1.4h-1.6l-0.9,2l-2.9-0.3l-3.5,0.4l-5.1,1.7l-6.8,0.8l-6.1,0.1
		l-3.6-3.2l-2.9-0.6l-3.4,1l-2.7,0.8l5.8,1.2l1.7,2.6l-4.8,1.7l-3.5,0.4l-3.8,4.9l-6.4,0.4l-2.6,0.7l-3.4,6.5l-3.5,2l-7,4l-3.9,1.4
		l0.4,6.1l2,1.3l-2.8,4.2l-1.2,2.9l-2.5,2l-1,0.7l-0.6,2.9l-1.9,4.9h-2.3l-2.6-0.9l-4.2,1.4l-0.6,5.2l-10.3,4.1l0.4,2.3l-1.6,3.3
		l3.9,1.2l1.6-0.4l1.6,0.3l1.9-2h1.9l2.2-1l2.6,0.3v2.6l-0.3,1.9v1.3l2.9-0.1l3.5-5.5l1.2-6.8l6.4-1.1l7-5.3l3.9,0.9l8-1.4
		l-2.9,2.6l3.2-0.1v2.6l-2.3,0.4l0.1,4.5l1.3,1.9l-2.2,1l1,1.6l-0.6,1.6l3,4.1c0,0,1.6-0.3,2.6,0s4.3,4.1,4.3,4.1l-1.6,2.9
		l-0.3,3.6c0,0-3.9,0.7-4.1,2.7c-0.3,1.9-1.6,3.6-1.6,3.6l-4.2,0.1l0.4,3.5l4.9,1.2l0.4,4.5l3.2,1.2l1.6-1.6l2.9-1.7l0.7,1.6
		l-3.8,5.2l-2.2,2l-0.2,5.2l-5.3,13.3l0.4,3.2l-3.5,1l-0.6,5.2l-6.4,2.7l-2.2,3.9l-1.6,2.3l-2.3-0.6l-11.2,7.6l-2.9,0.1l-6.8-0.9
		l-2.9,1v2.3l-2.3,0.4v2.6l-3.9,0.1h-1l-1.9,0.4l0.7,2.9l-3.5,1.4l-1.2,4.2l-3.6-0.3l-3.8,3H240l-1.3-2.2l-4.2,1.4l-8.9,5l-6.4,3.7
		l-3.8,3.6l-1.9,3.6l5.2,1.5v-1.3l3.2,0.3l4.6,2.2l-0.9,3.2l3.2,1.2l-0.2,5.8l-3.6,0.1l-2.2,0.7l-3.2,1.7l-2.2,1.7l6.2,6.3l1.6-2
		l3.9-0.1l2.9-2.3l7.8,1.5l-1.2,2.9l-3.6-0.9l-4.2,0.1l-0.3,2.3l2,4.2l1.3,0.3v1.3l3.3,2.5l8.1-0.5v-1.9l2.2-0.7l-0.4-2.3l4.5,1.5
		l3.9-1l4.2-0.7l-0.1-4.2l3.5-2.3l0.2-4.8l1.9-0.7l2.3,0.6l5.5-0.1v-1.9l7.4,0.2l0.3-1l3.9-0.1l2.3,1.3l-1.3,2.3v2.6l2.6,2.9
		l3.9,0.9l4.8-1.7l3.2-0.1l0.7,4.2l4.2,0.6h2.3l-2.8,3.3l-3.9,0.1l-4.2-0.9l-1.6-1.6c0,0-1.3,0.3-1.3,1.3s-0.6,1.9-0.6,1.9
		l-1.9,1.6l-0.6,4.9l4.2,0.6l2.9,1.9l2.6,1.9l1.2-2.9l3.2-2.6l2.3,3.2c0,0,1.9-2,3.2-2s6.2,2.5,6.2,2.5l-0.4-2.6l2.2-2l-3.9-2.8
		c0,0,1.9-0.4,2.9-0.7c1-0.3,3.5-2.3,4.5-2.3s4.6,3.1,4.6,3.1l4.3,4.1c0,0-1.6,2.3-1.6,3.3s1.3,2.9,1.3,2.9l1.3,1.3
		c0,0,2.3,2.5,3.3,2.8c0.7,0.2,4.9,1.3,7,1.8c0.7,0.2,1.1,0.3,1.1,0.3l5.9,6l7.4,1.5l6.8,1.2l11.9,0.1l1.3-2.3l-0.1-6.8l6-4.9
		l5.1-2l1.3-1.6l6.4-2.4l4.5-1v-1.3l8.4-0.1l1.2-3.2l8-6.6l1.3-0.3L420.2,1174.7z"/>
</g>
<g id="england">
	<g id="eMid" class="nhsuk-region">
		<polygon class="st0" points="617.3,942.6 618.3,943.6 619.3,943.6 		"/>
		<polygon class="st0" points="618.3,1017.6 619.3,1019.6 621.3,1017.6 620.3,1017.6 619.3,1017.6 		"/>
		<polygon class="st0" points="617.8,1019.1 618.3,1018.6 617.3,1018.6 		"/>
		<polygon class="st0" points="618.3,1019.6 618.3,1018.6 617.8,1019.1 		"/>
		<polygon class="st0" points="635.3,1037.6 633.3,1036.6 635.3,1033.6 631.3,1032.6 630.3,1037.6 628.3,1042.6 629.3,1042.6 		"/>
		<polygon class="st0" points="558.3,970.6 557.3,968.6 558,970.8 		"/>
		<polygon class="st0" points="555.5,977.7 555.6,977.3 555.3,977.6 		"/>
		<polygon class="st0" points="555.3,960.6 554.3,960.6 555.3,961.6 		"/>
		<polygon class="st0" points="555.3,984.6 555.3,983.6 554.3,986.6 		"/>
		<polygon class="st0" points="555.3,978.6 555.5,977.7 555.3,977.6 		"/>
		<polygon class="st0" points="641.3,979.6 632.3,957.6 631.3,956.6 630.3,957.6 630.3,956.6 629.3,956.6 631.3,955.6 629.3,954.6 
			629.3,953.6 630.3,953.6 629.3,952.6 629.3,951.6 626.3,946.6 626.3,947.6 625.3,947.6 625.3,946.6 623.3,945.6 624.3,947.6 
			623.3,947.6 622.3,946.6 621.3,944.6 619.3,943.6 618.3,944.6 616.3,942.6 612.3,943.6 611.3,943.6 610.3,943.6 609.3,946.6 
			607.3,947.6 608.3,948.6 606.3,949.6 608.3,951.6 605.3,954.6 605.3,953.6 603.3,952.6 603.3,949.6 601.3,949.6 600.3,947.6 
			599.3,947.6 599.3,944.6 599.3,941.6 598.3,941.6 600.3,937.6 600.3,936.6 598.3,936.6 597.3,934.6 595.3,934.6 596.3,933.6 
			592.3,931.6 591.3,931.6 592.3,933.6 589.3,938.6 583.3,937.6 582.3,936.6 579.3,939.6 577.3,939.6 576.3,940.6 582.3,939.6 
			583.3,941.6 584.3,943.6 577.3,945.6 577.3,948.6 579.3,948.6 572.3,950.6 567.3,950.6 567.3,943.6 558.3,943.6 558.3,944.6 
			557.3,945.6 556.3,945.6 556.3,948.6 555.3,948.6 555.3,950.6 554.3,951.6 552.3,953.6 552.3,954.6 554.3,956.6 555.3,958.6 
			554.3,960.6 555.3,960.6 555.3,961.6 554.3,962.6 555.3,962.6 556.3,962.6 557.3,964.6 556.3,967.6 557.3,967.6 557.3,968.6 
			558.3,970.6 558,970.8 558.3,971.6 557.3,971.6 556.3,971.6 555.3,973.6 556.3,974.6 556.3,976.6 555.6,977.3 555.5,977.7 
			555.3,978.6 555.3,983.6 552.3,983.6 551.3,981.6 549.3,982.6 546.3,980.6 542.3,981.6 542.3,980.6 541.3,979.6 538.3,979.6 
			536.3,975.6 533.3,978.6 529.3,979.6 529.3,980.6 522.3,981.6 523.3,979.6 522.3,977.6 523.3,975.6 525.3,975.6 524.3,974.6 
			526.3,973.6 525.3,972.6 525.3,970.6 523.3,969.6 523.3,970.6 521.3,969.6 519.3,970.6 516.3,969.6 516.3,967.6 515.3,966.6 
			514.3,967.6 513.3,969.6 509.3,968.6 509.3,966.6 507.3,965.6 506.3,966.6 505.3,966.6 503.3,967.6 504.3,968.6 503.3,968.6 
			500.3,968.6 497.3,970.6 495.3,970.6 495.3,968.6 494.3,969.6 494.3,968.6 493.3,969.6 492.3,968.6 490.3,968.6 492.3,965.6 
			493.3,965.6 488.3,962.6 488.3,959.6 485.3,957.6 484.3,956.6 482.3,955.6 481.3,950.6 480.3,950.6 477.3,948.6 475.3,950.6 
			472.3,950.6 473.3,952.6 472.3,955.6 467.3,957.6 465.3,957.6 464.3,955.6 463.3,956.6 462.3,960.6 459.3,961.6 460.3,962.6 
			461.3,964.6 461.3,976.6 464.3,979.6 463.3,980.6 463.3,982.6 465.3,980.6 465.3,981.6 472.3,984.6 475.3,987.6 476.3,989.6 
			476.3,991.6 479.3,996.6 478.3,997.6 479.3,1001.6 479.3,1003.6 480.3,1004.6 480.3,1009.6 475.3,1012.6 475.3,1016.6 
			473.3,1018.6 475.3,1022.6 475.3,1023.6 476.3,1024.6 477.3,1023.6 478.3,1024.6 479.3,1023.6 483.3,1026.6 485.3,1026.6 
			486.3,1026.6 490.3,1027.6 494.3,1030.6 492.3,1032.6 493.3,1033.6 493.3,1034.6 491.3,1036.6 487.3,1036.6 485.3,1043.6 
			488.3,1044.6 488.3,1047.6 493.3,1047.6 493.3,1048.6 496.3,1051.6 497.3,1053.6 497.3,1054.6 495.3,1055.6 496.3,1058.6 
			496.3,1060.6 498.3,1062.6 498.3,1063.6 506.3,1068.6 515.3,1073.6 523.3,1085.6 525.3,1090.6 521.3,1092.6 518.3,1094.6 
			522.3,1096.6 520.3,1099.6 522.3,1102.6 521.3,1103.6 518.3,1106.6 517.3,1105.6 519.3,1111.6 514.3,1111.6 513.3,1114.6 
			519.3,1123.6 514.3,1125.6 516.3,1126.6 514.3,1129.6 517.3,1134.6 517.3,1138.6 520.3,1137.6 523.3,1139.6 526.3,1136.6 
			528.3,1136.6 529.3,1134.6 528.3,1133.6 529.3,1130.6 534.3,1128.6 536.3,1128.6 535.3,1126.6 536.3,1126.6 541.3,1127.6 
			542.3,1125.6 545.3,1133.6 547.3,1132.6 548.3,1132.6 548.3,1131.6 550.3,1129.6 549.3,1128.6 551.3,1128.6 551.3,1126.6 
			550.3,1124.6 548.3,1123.6 548.3,1121.6 547.3,1121.6 547.3,1120.6 551.3,1119.6 551.3,1117.6 552.3,1118.6 553.3,1115.6 
			554.3,1116.6 555.3,1114.6 556.3,1114.6 556.3,1115.6 561.3,1111.6 564.3,1111.6 566.3,1107.6 565.3,1102.6 569.3,1100.6 
			571.3,1103.6 573.3,1103.6 574.3,1101.6 573.3,1099.6 575.3,1096.6 575.3,1095.6 579.3,1095.6 579.3,1093.6 578.3,1092.6 
			578.3,1091.6 577.3,1090.6 577.3,1088.6 576.3,1087.6 577.3,1086.6 574.3,1084.6 576.3,1082.6 575.3,1080.6 577.3,1080.6 
			578.3,1076.6 575.3,1075.6 574.3,1075.6 576.3,1073.6 575.3,1073.6 573.3,1070.6 569.3,1073.6 568.3,1070.6 566.3,1070.6 
			563.3,1071.6 564.3,1070.6 566.3,1069.6 566.3,1068.6 564.3,1066.6 563.3,1065.6 569.3,1061.6 570.3,1061.6 570.3,1060.6 
			571.3,1061.6 572.3,1060.6 573.3,1060.6 572.3,1059.6 573.3,1056.6 575.3,1054.6 577.3,1054.6 580.3,1053.6 584.3,1053.6 
			588.3,1052.6 589.3,1050.6 593.3,1051.6 595.3,1053.6 599.3,1051.6 600.3,1053.6 601.3,1052.6 604.3,1053.6 607.3,1050.6 
			608.3,1051.6 610.3,1050.6 612.3,1052.6 616.3,1051.6 618.3,1049.6 618.3,1045.6 619.3,1043.6 621.3,1044.6 625.3,1042.6 
			628.3,1042.6 630.3,1036.6 631.3,1031.6 630.3,1030.6 631.3,1030.6 628.3,1025.6 626.3,1024.6 624.3,1023.6 622.3,1023.6 
			619.3,1021.6 617.3,1022.6 618.3,1021.6 617.3,1021.6 616.3,1021.6 618.3,1019.6 617.3,1019.6 617.8,1019.1 617.3,1018.6 
			618.3,1018.6 618.3,1017.6 616.3,1016.6 614.3,1013.6 617.3,1016.6 619.3,1017.6 620.3,1017.6 621.3,1014.6 627.3,1007.6 
			635.3,1001.6 634.3,1001.6 636.3,999.6 637.3,998.6 637.3,997.6 638.3,997.6 639.3,997.6 640.3,997.6 641.3,995.6 642.3,984.6 		
			"/>
	</g>
	<g id="wMid" class="nhsuk-region">
		<polygon class="st0" points="518.3,1094.6 521.3,1092.6 525.3,1090.6 523.3,1085.6 515.3,1073.6 506.3,1068.6 498.3,1063.6 
		498.3,1062.6 496.3,1060.6 496.3,1058.6 495.3,1055.6 497.3,1054.6 497.3,1053.6 496.3,1051.6 493.3,1048.6 493.3,1047.6 
		488.3,1047.6 488.3,1044.6 485.3,1043.6 487.3,1036.6 491.3,1036.6 493.3,1034.6 493.3,1033.6 492.3,1032.6 494.3,1030.6 
		490.3,1027.6 486.3,1026.6 485.3,1026.6 483.3,1026.6 479.3,1023.6 478.3,1024.6 477.3,1023.6 476.3,1024.6 475.3,1023.6 
		475.3,1022.6 473.3,1018.6 475.3,1016.6 475.3,1012.6 480.3,1009.6 480.3,1004.6 479.3,1003.6 479.3,1001.6 478.3,997.6 
		479.3,996.6 476.3,991.6 476.3,989.6 475.3,987.6 472.3,984.6 465.3,981.6 465.3,980.6 463.3,982.6 462.3,984.6 458.3,984.6 
		457.3,987.6 453.3,987.6 451.3,985.6 451.3,989.6 450.3,988.6 443.3,997.6 440.3,999.6 438.3,998.6 435.3,1001.6 433.3,1002.6 
		433.3,1005.6 434.3,1007.6 433.3,1008.6 433.3,1009.6 429.3,1010.6 429.3,1012.6 425.3,1014.6 422.3,1012.6 422.3,1015.6 
		419.3,1013.6 417.3,1014.6 416.3,1013.6 417.3,1011.6 414.3,1009.6 411.3,1010.6 409.3,1009.6 407.3,1011.6 406.3,1012.6 
		407.3,1014.6 406.3,1018.6 404.3,1018.6 401.3,1022.6 398.3,1016.6 395.3,1015.6 394.3,1015.6 391.3,1016.6 389.3,1015.6 
		388.3,1013.6 387.3,1014.6 385.3,1014.6 383.3,1018.6 378.3,1017.6 377.3,1019.6 377.3,1022.6 375.3,1022.6 375.3,1023.6 
		374.3,1024.6 376.3,1025.6 373.3,1028.6 374.3,1029.6 373.3,1032.6 373.3,1033.6 374.3,1033.6 374.3,1035.6 377.3,1036.6 
		379.3,1035.6 379.3,1036.6 380.3,1038.6 382.3,1038.6 383.3,1038.6 383.3,1039.6 384.3,1038.6 385.3,1039.6 384.3,1040.6 
		386.3,1041.6 386.3,1042.6 388.3,1043.6 389.3,1045.6 387.3,1045.6 387.3,1043.6 386.3,1044.6 384.3,1044.6 384.3,1046.6 
		382.3,1048.6 383.3,1050.6 382.3,1053.6 379.3,1054.6 381.3,1056.6 380.3,1056.6 379.3,1058.6 379.3,1059.6 377.3,1061.6 
		375.3,1061.6 377.3,1067.6 375.3,1068.6 376.3,1069.6 379.3,1068.6 379.3,1066.6 385.3,1063.6 386.3,1065.6 385.3,1070.6 
		383.3,1069.6 383.3,1072.6 377.3,1072.6 372.3,1075.6 371.3,1075.6 368.3,1079.6 369.3,1082.6 372.3,1084.6 374.3,1086.6 
		377.3,1088.6 381.3,1091.6 383.3,1092.6 388.3,1091.6 389.3,1091.6 388.3,1094.6 386.3,1095.6 385.3,1100.6 390.3,1101.6 
		387.3,1103.6 385.3,1102.6 383.3,1103.6 382.3,1104.6 382.3,1105.6 380.3,1106.6 380.3,1109.6 378.3,1110.6 378.3,1112.6 
		376.3,1115.6 378.3,1116.6 379.3,1115.6 380.3,1116.6 379.3,1117.6 375.3,1118.6 375.3,1119.6 378.3,1121.6 378.3,1122.6 
		376.3,1123.6 376.3,1126.6 379.3,1129.6 379.3,1131.6 378.3,1133.6 381.3,1138.6 385.3,1143.6 385.3,1145.6 388.3,1145.6 
		388.3,1148.6 395.3,1144.6 398.3,1146.6 398.3,1148.6 403.3,1151.6 403.3,1153.6 406.3,1156.6 407.3,1155.6 407.3,1156.6 
		409.3,1155.6 409.3,1157.6 411.3,1157.6 412.3,1158.6 413.3,1156.6 414.3,1156.6 416.3,1154.6 418.3,1155.6 418.3,1153.6 
		421.3,1153.6 423.3,1150.6 425.3,1151.6 428.3,1149.6 428.3,1146.6 426.3,1145.6 427.3,1142.6 424.3,1141.6 424.3,1140.6 
		424.3,1138.6 426.3,1136.6 424.3,1135.6 425.3,1133.6 427.3,1133.6 427.3,1134.6 429.3,1134.6 429.3,1136.6 430.3,1136.6 
		432.3,1136.6 432.3,1134.6 435.3,1133.6 435.3,1134.6 437.3,1135.6 437.3,1139.6 438.3,1139.6 439.3,1140.6 443.3,1140.6 
		445.3,1136.6 448.3,1137.6 448.3,1136.6 449.3,1136.6 448.3,1133.6 449.3,1133.6 448.3,1130.6 450.3,1129.6 453.3,1131.6 
		451.3,1132.6 451.3,1135.6 451.3,1136.6 453.3,1134.6 456.3,1134.6 457.3,1134.6 458.3,1135.6 459.3,1135.6 463.3,1131.6 
		466.3,1131.6 467.3,1132.6 469.3,1130.6 474.3,1135.6 475.3,1132.6 475.3,1130.6 472.3,1129.6 472.3,1127.6 474.3,1126.6 
		475.3,1126.6 476.3,1125.6 476.3,1126.6 477.3,1123.6 480.3,1121.6 481.3,1124.6 483.3,1123.6 483.3,1126.6 484.3,1127.6 
		485.3,1126.6 485.3,1128.6 486.3,1129.6 485.3,1131.6 488.3,1132.6 491.3,1131.6 487.3,1136.6 488.3,1137.6 492.3,1141.6 
		493.3,1139.6 494.3,1139.6 496.3,1138.6 496.3,1137.6 498.3,1137.6 501.3,1124.6 502.3,1123.6 504.3,1123.6 504.3,1121.6 
		506.3,1121.6 509.3,1124.6 511.3,1123.6 510.3,1121.6 508.3,1121.6 510.3,1118.6 512.3,1118.6 513.3,1114.6 514.3,1111.6 
		519.3,1111.6 517.3,1105.6 518.3,1106.6 521.3,1103.6 522.3,1102.6 520.3,1099.6 522.3,1096.6 		"/>
	</g>
	<g id="east" class="nhsuk-region">
		<polygon class="st0" points="665.3,1011.6 667.3,1010.6 666.3,1010.6 		"/>
		<polygon class="st0" points="747.3,1065.6 747.3,1063.6 748.3,1056.6 743.3,1042.6 736.3,1034.6 717.3,1019.6 711.3,1016.6 
			700.3,1015.6 694.3,1013.6 692.3,1013.6 691.3,1013.6 690.3,1014.6 690.3,1013.6 688.3,1014.6 687.3,1013.6 687.3,1014.6 
			686.3,1013.6 685.3,1013.6 685.3,1014.6 683.3,1014.6 681.3,1014.6 684.3,1013.6 683.3,1012.6 683.3,1013.6 681.3,1011.6 
			680.3,1014.6 679.3,1012.6 677.3,1012.6 673.3,1011.6 672.3,1012.6 671.3,1012.6 669.3,1011.6 670.3,1011.6 672.3,1011.6 
			667.3,1010.6 667.3,1011.6 668.3,1011.6 666.3,1012.6 666.3,1011.6 664.3,1012.6 662.3,1013.6 662.3,1012.6 660.3,1012.6 
			661.3,1013.6 660.3,1013.6 659.3,1012.6 658.3,1013.6 658.3,1012.6 656.3,1012.6 653.3,1015.6 649.3,1025.6 649.3,1029.6 
			648.3,1029.6 647.3,1028.6 646.3,1029.6 647.3,1029.6 646.3,1030.6 645.3,1030.6 643.3,1034.6 645.3,1040.6 645.1,1041 
			642.3,1034.6 640.3,1034.6 641.3,1033.6 639.3,1032.6 635.3,1033.6 633.3,1036.6 635.3,1037.6 629.3,1042.6 628.3,1042.6 
			625.3,1042.6 621.3,1044.6 619.3,1043.6 618.3,1045.6 618.3,1049.6 616.3,1051.6 612.3,1052.6 610.3,1050.6 608.3,1051.6 
			607.3,1050.6 604.3,1053.6 601.3,1052.6 600.3,1053.6 599.3,1051.6 595.3,1053.6 593.3,1051.6 589.3,1050.6 588.3,1052.6 
			584.3,1053.6 580.3,1053.6 577.3,1054.6 575.3,1054.6 573.3,1056.6 572.3,1059.6 573.3,1060.6 572.3,1060.6 571.3,1061.6 
			570.3,1060.6 570.3,1061.6 569.3,1061.6 563.3,1065.6 564.3,1066.6 566.3,1068.6 566.3,1069.6 564.3,1070.6 563.3,1071.6 
			566.3,1070.6 568.3,1070.6 569.3,1073.6 573.3,1070.6 575.3,1073.6 576.3,1073.6 574.3,1075.6 575.3,1075.6 578.3,1076.6 
			577.3,1080.6 575.3,1080.6 576.3,1082.6 574.3,1084.6 577.3,1086.6 576.3,1087.6 577.3,1088.6 577.3,1090.6 578.3,1091.6 
			578.3,1092.6 579.3,1093.6 579.3,1095.6 575.3,1095.6 575.3,1096.6 573.3,1099.6 574.3,1101.6 573.3,1103.6 571.3,1103.6 
			569.3,1100.6 565.3,1102.6 566.3,1107.6 564.3,1111.6 561.3,1111.6 556.3,1115.6 556.3,1114.6 555.3,1114.6 554.3,1116.6 
			553.3,1115.6 552.3,1118.6 551.3,1117.6 551.3,1119.6 547.3,1120.6 547.3,1121.6 548.3,1121.6 548.3,1123.6 550.3,1124.6 
			551.3,1126.6 551.3,1128.6 549.3,1128.6 550.3,1129.6 548.3,1131.6 553.3,1136.6 553.3,1137.6 551.3,1141.6 551.3,1142.6 
			554.3,1145.6 554.3,1142.6 555.3,1143.6 557.3,1143.6 561.3,1147.6 562.3,1148.6 563.3,1148.6 565.3,1150.6 567.3,1150.6 
			570.3,1152.6 574.3,1157.6 573.3,1158.6 572.3,1158.6 572.3,1157.6 570.3,1160.6 566.3,1159.6 564.3,1159.6 562.3,1156.6 
			562.3,1155.6 561.3,1154.6 560.3,1154.6 558.3,1156.6 559.3,1159.6 560.3,1158.6 562.3,1161.6 562.3,1162.6 564.3,1165.6 
			568.3,1168.6 570.3,1167.6 571.3,1169.6 572.3,1169.6 573.3,1170.6 572.3,1172.6 573.3,1174.6 573.3,1176.6 576.3,1176.6 
			576.3,1177.6 575.3,1178.6 575.3,1179.6 574.3,1179.6 573.3,1182.6 575.3,1186.6 576.3,1186.6 577.3,1182.6 580.3,1185.6 
			581.3,1184.6 584.3,1185.6 590.3,1181.6 591.3,1182.6 595.3,1181.6 595.3,1179.6 598.3,1179.6 599.3,1178.6 600.3,1178.6 
			602.3,1175.6 607.3,1175.6 614.3,1176.6 614.3,1181.6 616.3,1181.6 616.3,1183.6 620.3,1186.6 625.3,1183.6 630.3,1183.6 
			632.3,1182.6 634.3,1184.6 635.3,1185.6 634.3,1186.6 635.3,1187.6 637.3,1191.6 638.3,1191.6 640.3,1194.6 635.3,1195.6 
			635.3,1197.6 634.3,1197.6 634.3,1196.6 633.3,1197.6 633.3,1198.6 632.3,1198.6 632.3,1199.6 631.3,1200.6 636.3,1204.6 
			637.3,1203.6 639.3,1202.6 641.3,1205.6 645.3,1205.6 647.3,1204.6 648.3,1202.6 649.3,1199.6 648.3,1199.6 656.3,1198.6 
			654.3,1197.6 653.6,1195.6 654.3,1195.6 657.3,1198.6 658.3,1198.6 663.3,1196.6 662.3,1196.6 660.3,1195.6 657.3,1194.6 
			661.3,1195.6 662.3,1195.6 664.3,1194.6 666.3,1194.6 674.3,1196.6 677.3,1194.6 679.3,1192.6 677.3,1191.6 678.3,1188.6 
			678.3,1187.6 679.3,1187.6 679.3,1189.6 679.3,1191.6 681.3,1192.6 686.3,1187.6 688.3,1184.6 681.3,1185.6 681.3,1187.6 
			680.3,1187.6 681.3,1184.6 684.3,1184.6 686.3,1182.6 687.3,1176.6 686.3,1173.6 687.3,1170.6 685.3,1168.6 683.3,1168.6 
			682.3,1169.6 680.3,1172.6 675.3,1171.6 675.3,1173.6 673.3,1173.6 672.3,1173.6 672.3,1172.6 669.3,1172.6 668.5,1171.1 
			669.3,1169.6 671.3,1170.6 674.3,1168.6 675.3,1169.6 675.3,1168.6 679.3,1169.6 680.3,1168.6 682.3,1166.6 680.3,1166.6 
			679.3,1166.6 679.3,1165.6 680.3,1165.6 678.3,1164.6 683.3,1165.6 682.3,1164.6 679.3,1163.6 680.3,1163.6 681.3,1163.6 
			681.3,1162.6 683.3,1164.6 687.3,1164.6 691.3,1162.6 691.3,1161.6 689.3,1160.6 690.3,1160.6 687.3,1158.6 688.3,1158.6 
			687.3,1157.6 690.3,1159.6 689.3,1155.6 690.3,1156.6 690.3,1157.6 692.3,1160.6 694.3,1160.6 696.3,1159.6 695.3,1160.6 
			694.3,1161.6 692.3,1161.6 694.3,1162.6 694.3,1164.6 694.3,1165.6 701.3,1164.6 708.3,1160.6 712.3,1155.6 713.3,1153.6 
			713.3,1151.6 712.3,1151.6 711.3,1150.6 711.3,1151.6 710.3,1150.6 710.3,1149.6 710.3,1146.6 713.3,1144.6 714.3,1144.6 
			713.3,1142.6 712.3,1143.6 710.3,1142.6 708.3,1143.6 705.3,1143.6 704.3,1142.6 700.3,1143.6 696.3,1143.6 695.3,1142.6 
			696.3,1142.6 697.3,1141.6 701.3,1142.6 703.3,1139.6 705.3,1141.6 712.3,1141.6 711.3,1137.6 707.3,1136.6 705.3,1135.6 
			702.3,1131.6 703.3,1129.6 703.3,1132.6 705.3,1134.6 712.3,1137.6 712.3,1140.6 715.3,1142.6 715.3,1144.6 717.3,1141.6 
			721.3,1138.6 721.3,1137.6 724.3,1135.6 726.3,1130.6 728.3,1128.6 735.3,1125.6 736.7,1119.5 737.3,1118.6 737,1118.6 
			738.3,1112.6 739.3,1101.6 742.3,1096.6 746.3,1085.6 747.3,1079.6 749.3,1076.6 749.3,1075.6 749.3,1074.6 		"/>
		<polygon class="st0" points="691.3,1012.6 689.3,1011.6 688.3,1013.6 689.3,1012.6 		"/>
		<polygon class="st0" points="678.3,1191.6 679.3,1191.6 678.3,1190.6 		"/>
		<polygon class="st0" points="672.3,1171.6 674.3,1171.6 675.3,1171.6 674.3,1170.6 		"/>
		<polygon class="st0" points="670.3,1171.6 670.3,1170.6 669.3,1171.6 		"/>
	</g>
	<g id="lon" class="nhsuk-region">
		<polygon class="st0" points="638.3,1191.6 637.3,1191.6 635.3,1187.6 634.3,1186.6 635.3,1185.6 634.3,1184.6 632.3,1182.6 
			630.3,1183.6 625.3,1183.6 620.3,1186.6 616.3,1183.6 616.3,1181.6 614.3,1181.6 614.3,1176.6 607.3,1175.6 602.3,1175.6 
			600.3,1178.6 599.3,1178.6 598.3,1179.6 595.3,1179.6 595.3,1181.6 591.3,1182.6 590.3,1181.6 584.3,1185.6 581.3,1184.6 
			580.3,1185.6 577.3,1182.6 576.3,1186.6 578.3,1192.6 577.3,1194.6 578.3,1198.6 577.3,1200.6 576.3,1203.6 580.3,1205.6 
			580.3,1207.6 585.3,1209.6 585.3,1211.6 587.3,1210.6 591.3,1214.6 591.3,1215.6 589.3,1218.6 590.3,1221.6 591.3,1220.6 
			593.3,1216.6 595.3,1214.6 596.3,1214.6 596.3,1216.6 597.3,1217.6 598.3,1219.6 597.3,1220.6 598.3,1221.6 600.3,1219.6 
			602.3,1221.6 603.3,1224.6 604.3,1224.6 605.3,1226.6 608.3,1224.6 609.3,1222.6 611.3,1222.6 612.3,1220.6 615.3,1221.6 
			616.3,1226.6 617.3,1224.6 618.3,1225.6 619.3,1226.6 622.3,1225.6 621.3,1223.6 624.3,1221.6 624.3,1219.6 625.3,1219.6 
			626.3,1216.6 626.3,1213.6 627.3,1213.6 626.3,1211.6 626.3,1208.6 627.3,1208.6 628.3,1206.6 630.3,1204.6 630.3,1203.6 
			631.3,1202.6 628.3,1201.6 627.3,1199.6 624.3,1197.6 627.3,1198.6 628.3,1198.6 629.3,1201.6 631.3,1200.6 632.3,1199.6 
			632.3,1198.6 633.3,1198.6 633.3,1197.6 634.3,1196.6 634.3,1197.6 635.3,1197.6 635.3,1195.6 640.3,1194.6 	"/>
	</g>
	<g id="wes" class="nhsuk-region">
		<polygon class="st0" points="428.3,1318.6 427.3,1325.6 430.3,1321.6 430.3,1317.6 427.3,1317.6 		"/>
		<polygon class="st0" points="502.3,1273.6 502,1273.9 502.3,1274.6 		"/>
		<polygon class="st0" points="558.3,1249.6 556.3,1248.6 554.3,1243.6 551.3,1244.6 552.3,1240.6 550.3,1236.6 546.3,1236.6 
			546.3,1234.6 548.3,1231.6 548.3,1227.6 548.3,1226.6 548.3,1225.6 551.3,1225.6 551.3,1222.6 547.3,1221.6 545.3,1219.6 
			545.3,1217.6 543.3,1216.6 534.3,1217.6 532.3,1214.6 529.3,1215.6 529.3,1217.6 528.3,1217.6 525.3,1217.6 519.3,1215.6 
			512.3,1216.6 507.3,1215.6 506.3,1217.6 504.3,1218.6 506.3,1220.6 500.3,1221.6 498.3,1220.6 498.3,1222.6 499.3,1225.6 
			498.3,1226.6 497.3,1227.6 497.3,1230.6 498.3,1230.6 497.3,1231.6 497.3,1232.6 494.3,1230.6 492.3,1231.6 490.3,1235.6 
			486.3,1235.6 485.3,1237.6 487.3,1238.6 487.3,1240.6 488.3,1243.6 488.3,1247.6 491.3,1248.6 490.3,1251.6 490.3,1253.6 
			490.3,1258.6 493.3,1260.6 493.3,1262.6 492.3,1261.6 492.3,1262.6 490.3,1263.6 491.3,1265.6 492.3,1265.6 491.3,1268.6 
			490.3,1268.6 488.3,1270.6 483.3,1266.6 481.3,1265.6 477.3,1264.6 476.3,1264.6 475.3,1261.6 473.3,1262.6 472.3,1265.6 
			472.3,1262.6 471.3,1263.6 468.3,1263.6 466.3,1265.6 465.3,1264.6 463.3,1265.6 462.3,1266.6 459.3,1266.6 457.3,1269.6 
			454.3,1270.6 453.3,1268.6 453.3,1265.6 449.3,1263.6 447.3,1258.6 444.3,1254.6 442.3,1254.6 437.3,1253.6 435.3,1254.6 
			437.3,1257.6 433.3,1262.6 433.3,1264.6 435.3,1264.6 436.3,1265.6 430.3,1268.6 429.3,1266.6 428.3,1267.6 428.3,1268.6 
			427.3,1269.6 425.3,1266.6 424.3,1263.6 422.3,1264.6 420.3,1263.6 420.3,1265.6 418.3,1264.6 417.3,1266.6 417.3,1265.6 
			416.3,1266.6 416.3,1269.6 415.3,1270.6 416.3,1272.6 414.3,1274.6 416.3,1276.6 415.3,1278.6 412.3,1277.6 408.3,1279.6 
			407.3,1280.6 404.3,1280.6 402.3,1281.6 400.3,1280.6 399.3,1282.6 394.3,1282.6 391.3,1283.6 389.3,1285.6 389.3,1286.6 
			394.3,1287.6 394.3,1289.6 389.3,1292.6 391.3,1294.6 389.3,1297.6 390.3,1298.6 393.3,1296.6 402.3,1298.6 413.3,1305.6 
			416.1,1307.8 415.3,1307.6 424.3,1314.6 426.3,1316.6 428.3,1313.6 428.3,1312.6 427.3,1312.6 429.3,1310.6 432.3,1309.6 
			443.3,1311.6 447.3,1311.6 448.3,1312.6 450.3,1311.6 451.3,1312.6 452.3,1312.6 453.3,1314.6 457.3,1314.6 458.3,1316.6 
			460.3,1315.6 466.3,1314.6 466.3,1313.6 465.3,1312.6 465.3,1311.6 468.3,1308.6 466.3,1308.6 466.3,1304.6 466.3,1303.6 
			469.3,1300.6 473.3,1298.6 477.3,1298.6 481.3,1299.6 482.3,1298.6 483.3,1296.6 485.3,1296.6 489.3,1297.6 496.3,1300.6 
			494.3,1299.6 498.3,1296.6 497.3,1296.6 498.3,1295.6 497.3,1293.6 500.3,1294.6 508.3,1291.6 507.3,1290.6 507.3,1288.6 
			504.3,1286.6 506.3,1287.6 507.3,1287.6 508.3,1290.6 512.3,1290.6 515.3,1286.6 514.3,1285.6 512.3,1285.6 512.3,1282.6 
			511.3,1283.6 511.3,1282.6 510.3,1281.6 506.3,1276.6 501.3,1274.6 502,1273.9 501.3,1272.6 502.3,1272.6 503.3,1274.6 
			508.3,1276.6 509.3,1275.6 509.3,1276.6 510.3,1278.6 515.3,1282.6 515.3,1283.6 522.3,1287.6 524.3,1289.6 527.3,1291.6 
			529.3,1290.6 530.3,1290.6 530.3,1289.6 532.3,1291.6 536.3,1289.6 536.3,1288.6 535.3,1289.6 535.3,1284.6 534.3,1284.1 
			536.3,1284.6 537.3,1284.6 538.3,1284.6 537.3,1283.6 538.3,1283.6 540.3,1284.6 540.3,1283.6 543.3,1282.6 544.3,1280.6 
			542.3,1277.6 543.3,1273.6 544.3,1272.6 543.3,1270.6 544.3,1270.6 545.3,1263.6 546.3,1262.6 546.3,1260.6 550.3,1257.6 
			550.3,1254.6 552.3,1255.6 552.3,1254.6 554.3,1255.6 555.3,1253.6 557.3,1252.6 557.3,1250.6 556.3,1250.6 		"/>
		<polygon class="st0" points="543.3,1291.6 543.3,1290.6 542.3,1290.6 541.3,1290.6 542.3,1288.6 540.3,1287.6 542.3,1287.6 
			542.3,1285.6 541.3,1284.6 539.3,1285.6 539.3,1288.6 536.3,1289.6 537.3,1290.6 		"/>
		<polygon class="st0" points="530.3,1302.6 530.3,1301.6 531.3,1301.6 531.3,1300.6 530.3,1298.6 528.3,1297.6 522.3,1296.6 
			520.3,1295.6 520.3,1296.6 519.3,1294.6 517.3,1292.6 516.3,1293.6 515.3,1292.6 512.3,1294.6 511.3,1296.6 507.3,1298.6 
			506.3,1297.6 502.3,1300.6 500.3,1300.6 499.3,1300.6 498.3,1300.6 497.3,1303.6 494.3,1305.6 501.3,1305.6 504.3,1308.6 
			509.3,1310.6 515.3,1317.6 524.3,1314.6 526.3,1307.6 528.3,1306.6 531.3,1305.6 533.3,1302.6 532.3,1301.6 		"/>
	</g>
	<g id="sw" class="nhsuk-region">
		<polygon class="st0" points="133.3,1396.6 130.3,1394.6 132.3,1397.6 		"/>
		<polygon class="st0" points="130.3,1395.6 129.3,1394.6 129.3,1396.6 130.3,1397.6 		"/>
		<polygon class="st0" points="130.3,1404.6 131.3,1405.6 131.3,1403.6 130.3,1403.6 		"/>
		<polygon class="st0" points="133.3,1399.6 133.3,1400.6 132.3,1401.6 133.3,1401.6 134.3,1402.6 134.3,1401.6 135.3,1401.6 
			136.3,1400.6 136.3,1399.6 134.3,1398.6 		"/>
		<polygon class="st0" points="132.3,1404.6 132.3,1403.6 131.3,1403.6 		"/>
		<polygon class="st0" points="135.3,1392.6 134.3,1394.6 135.3,1395.6 137.3,1394.6 135.3,1394.6 		"/>
		<polygon class="st0" points="501.3,1216.6 496.3,1212.6 496.3,1211.6 495.3,1210.6 495.3,1209.6 498.3,1209.6 498.3,1206.6 
			494.3,1200.6 494.3,1196.6 492.3,1197.6 489.3,1190.6 490.3,1188.6 489.3,1187.6 491.3,1187.6 494.3,1185.6 491.3,1182.6 
			488.3,1183.6 486.3,1180.6 485.3,1177.6 486.3,1175.6 487.3,1176.6 489.3,1176.6 486.3,1172.6 485.3,1171.6 486.3,1169.6 
			485.3,1165.6 483.3,1163.6 486.3,1161.6 486.3,1157.6 487.3,1155.6 486.3,1153.6 487.3,1151.6 488.3,1149.6 490.3,1148.6 
			489.3,1146.6 491.3,1144.6 490.3,1141.6 488.3,1140.6 488.3,1137.6 487.3,1136.6 491.3,1131.6 488.3,1132.6 485.3,1131.6 
			486.3,1129.6 485.3,1128.6 485.3,1126.6 484.3,1127.6 483.3,1126.6 483.3,1123.6 481.3,1124.6 480.3,1121.6 477.3,1123.6 
			476.3,1126.6 476.3,1125.6 475.3,1126.6 474.3,1126.6 472.3,1127.6 472.3,1129.6 475.3,1130.6 475.3,1132.6 474.3,1135.6 
			469.3,1130.6 467.3,1132.6 466.3,1131.6 463.3,1131.6 459.3,1135.6 458.3,1135.6 457.3,1134.6 456.3,1134.6 453.3,1134.6 
			451.3,1136.6 451.3,1135.6 451.3,1132.6 453.3,1131.6 450.3,1129.6 448.3,1130.6 449.3,1133.6 448.3,1133.6 449.3,1136.6 
			448.3,1136.6 448.3,1137.6 445.3,1136.6 443.3,1140.6 439.3,1140.6 438.3,1139.6 437.3,1139.6 437.3,1135.6 435.3,1134.6 
			435.3,1133.6 432.3,1134.6 432.3,1136.6 430.3,1136.6 429.3,1136.6 429.3,1134.6 427.3,1134.6 427.3,1133.6 425.3,1133.6 
			424.3,1135.6 426.3,1136.6 424.3,1138.6 424.3,1140.6 424.3,1141.6 427.3,1142.6 426.3,1145.6 428.3,1146.6 428.3,1149.6 
			425.3,1151.6 423.3,1150.6 421.3,1153.6 418.3,1153.6 418.3,1155.6 416.3,1154.6 414.3,1156.6 413.3,1156.6 412.3,1158.6 
			412.3,1160.6 410.3,1161.6 411.3,1162.6 410.3,1165.6 411.3,1167.6 411.3,1169.6 410.3,1170.6 411.3,1173.6 410.3,1174.6 
			412.3,1177.6 410.3,1178.6 411.3,1178.6 410.3,1180.6 411.3,1181.6 412.3,1185.6 413.3,1182.6 415.3,1177.6 423.3,1172.6 
			426.3,1168.6 431.3,1165.6 431.3,1164.6 428.3,1163.6 428.3,1162.6 433.3,1164.6 433.3,1166.6 429.3,1169.6 428.3,1169.6 
			425.3,1170.6 425.3,1174.6 421.3,1177.6 418.3,1180.6 418.3,1182.6 417.3,1184.6 414.3,1186.6 411.3,1190.6 411.3,1193.6 
			407.3,1198.6 410.3,1201.6 411.3,1201.6 411.8,1201.8 410.3,1202.6 407.3,1199.6 406.3,1199.6 406.3,1200.6 403.3,1200.6 
			395.3,1208.6 394.3,1210.6 392.3,1212.6 390.3,1213.6 390.3,1212.6 387.3,1213.6 389.3,1214.6 389.3,1215.6 388.3,1216.6 
			386.3,1217.6 387.3,1218.6 386.3,1222.6 383.3,1221.6 385.3,1222.6 384.3,1229.6 386.3,1232.6 385.3,1234.6 384.3,1238.6 
			382.3,1239.6 383.3,1238.6 384.3,1235.6 381.3,1237.6 374.3,1236.6 365.3,1240.6 362.3,1240.6 355.3,1239.6 352.3,1236.6 
			350.3,1236.6 348.3,1234.6 344.3,1233.6 342.3,1233.6 338.3,1235.6 338.3,1234.6 331.3,1233.6 327.3,1232.6 326.3,1231.6 
			324.3,1233.6 321.3,1233.6 318.3,1234.6 315.3,1233.6 313.3,1235.6 307.3,1235.6 306.3,1236.6 303.3,1235.6 296.3,1238.6 
			294.3,1237.6 293.3,1239.6 292.3,1239.6 293.3,1241.6 293.3,1244.6 289.3,1245.6 291.3,1246.6 291.3,1247.6 292.3,1248.6 
			293.3,1253.6 295.3,1254.6 295.3,1253.6 297.3,1252.6 298.3,1252.6 298.3,1253.6 296.3,1253.6 294.3,1262.6 295.3,1256.6 
			293.3,1256.6 293.3,1254.6 291.3,1257.6 290.3,1258.6 286.3,1263.6 283.3,1264.6 280.3,1263.6 277.3,1261.6 269.3,1260.6 
			269.3,1262.6 269.3,1267.6 267.3,1270.6 268.3,1272.6 266.3,1275.6 267.3,1283.6 268.3,1284.6 267.3,1284.6 266.3,1290.6 
			261.3,1294.6 261.3,1296.6 260.3,1296.6 259.3,1299.6 257.3,1300.6 258.3,1301.6 254.3,1303.6 253.3,1304.6 251.3,1305.6 
			251.3,1306.6 252.3,1307.6 251.3,1311.6 249.3,1314.6 246.3,1314.6 245.3,1314.6 243.3,1314.6 243.3,1315.6 242.3,1316.6 
			240.3,1315.6 239.3,1314.6 238.3,1315.6 240.3,1317.6 238.3,1318.6 239.3,1320.6 241.3,1322.6 242.3,1322.6 241.3,1323.6 
			241.3,1324.6 239.3,1322.6 238.3,1323.6 238.3,1322.6 238.3,1320.6 237.3,1319.6 237.3,1317.6 235.3,1319.6 234.3,1321.6 
			230.3,1320.6 231.3,1321.6 231.3,1324.6 232.3,1325.6 230.3,1326.6 231.3,1328.6 230.3,1333.6 229.3,1335.6 228.3,1335.6 
			229.3,1336.6 227.3,1337.6 226.3,1336.6 225.3,1337.6 224.3,1337.6 227.3,1338.6 228.3,1339.6 225.3,1338.6 224.3,1338.6 
			223.3,1338.6 223.3,1339.6 222.3,1338.6 222.3,1340.6 221.3,1340.6 222.3,1342.6 221.3,1346.6 219.3,1346.6 218.3,1349.6 
			215.3,1349.6 215.3,1353.6 212.3,1355.6 211.3,1356.6 210.3,1356.6 208.3,1359.6 205.3,1360.6 204.3,1359.6 203.3,1359.6 
			203.3,1362.6 200.3,1365.6 197.3,1364.6 197.3,1362.6 196.3,1362.6 195.3,1362.6 192.3,1362.6 188.3,1366.6 187.3,1365.6 
			185.3,1368.6 182.3,1369.6 179.3,1373.6 181.3,1378.6 178.3,1381.6 179.3,1382.6 180.3,1383.6 182.3,1385.6 184.3,1384.6 
			185.3,1385.6 186.3,1383.6 189.3,1383.6 192.3,1381.6 192.3,1378.6 191.3,1376.6 193.3,1375.6 193.3,1374.6 196.3,1373.6 
			200.3,1376.6 200.3,1377.6 203.3,1377.6 205.3,1378.6 207.3,1378.6 209.3,1379.6 212.3,1382.6 212.3,1384.6 213.3,1385.6 
			214.3,1387.6 213.3,1389.6 215.3,1392.6 214.3,1393.6 216.3,1393.6 217.3,1395.6 218.3,1395.6 219.3,1394.6 219.3,1393.6 
			220.3,1389.6 224.3,1388.6 225.3,1389.6 226.3,1388.6 226.3,1386.6 228.3,1385.6 229.3,1383.6 228.3,1381.6 227.3,1381.6 
			227.3,1379.6 224.3,1379.6 226.3,1378.6 225.3,1378.6 223.3,1378.6 222.3,1377.6 226.3,1377.6 227.3,1376.6 226.3,1374.6 
			228.3,1373.6 227.3,1372.6 229.3,1371.6 230.3,1371.6 229.3,1370.6 228.3,1370.6 227.3,1369.6 225.3,1369.6 226.3,1368.6 
			229.3,1369.6 230.3,1367.6 229.1,1367.2 228.3,1365.6 227.6,1364.3 228.3,1364.6 228.3,1363.6 229.3,1365.6 230.3,1364.6 
			231.3,1367.6 232.3,1365.6 231.3,1370.6 233.3,1370.6 232.3,1371.6 232.3,1372.6 235.3,1370.6 235.3,1366.6 237.3,1364.6 
			238.3,1363.6 239.3,1365.6 244.3,1360.6 247.3,1360.6 249.3,1362.6 249.3,1360.6 250.3,1360.6 249.3,1359.6 251.3,1357.6 
			249.3,1356.6 249.3,1355.6 250.3,1353.6 251.3,1352.6 252.3,1352.6 251.3,1349.6 252.3,1348.6 256.3,1346.6 257.3,1347.6 
			257.3,1349.6 258.3,1350.6 259.3,1349.6 261.3,1347.6 263.3,1347.6 261.3,1348.6 263.3,1348.6 264.3,1349.6 265.3,1347.6 
			268.3,1349.6 271.3,1348.6 271.3,1347.6 273.3,1347.6 275.3,1345.6 278.3,1343.6 286.3,1344.6 292.3,1347.6 293.3,1349.6 
			292.3,1350.6 295.3,1349.6 294.3,1347.6 296.3,1346.6 296.3,1344.6 294.3,1346.6 294.3,1344.6 291.3,1344.6 292.3,1343.6 
			295.3,1342.6 293.3,1341.6 294.3,1340.6 292.3,1340.6 293.3,1339.6 293.3,1336.6 294.3,1334.6 293.3,1331.6 292.3,1332.6 
			291.3,1331.6 293.3,1330.6 295.3,1332.6 294.3,1333.6 295.3,1335.6 296.3,1336.6 295.3,1336.6 294.3,1339.6 295.3,1340.6 
			296.3,1342.6 295.3,1343.6 297.3,1343.6 297.3,1344.6 298.3,1343.6 299.3,1344.6 300.3,1345.6 300.3,1347.6 300.3,1349.6 
			305.3,1350.6 305.3,1349.6 307.3,1350.6 304.3,1351.6 306.3,1352.6 308.3,1352.6 310.3,1351.6 312.3,1351.6 313.3,1350.6 
			315.3,1345.6 314.3,1348.6 316.3,1348.6 313.3,1351.6 314.3,1352.6 315.3,1352.6 317.3,1354.6 319.3,1354.6 318.3,1355.6 
			320.3,1357.6 320.3,1359.6 319.3,1359.6 323.3,1362.6 326.3,1363.6 326.3,1361.6 327.3,1360.6 327.3,1359.6 328.3,1359.6 
			331.3,1358.6 329.3,1359.6 330.3,1360.6 328.3,1360.6 327.3,1361.6 329.3,1362.6 331.3,1364.6 334.3,1361.6 337.3,1362.6 
			335.3,1360.6 337.3,1353.6 339.3,1349.6 342.3,1348.6 343.3,1347.6 342.3,1346.6 342.3,1345.6 344.3,1347.6 346.3,1346.6 
			346.3,1342.6 349.3,1339.6 347.3,1338.6 347.3,1339.6 345.3,1338.6 344.3,1339.6 343.3,1336.6 343.3,1333.6 345.3,1331.6 
			346.3,1332.6 349.3,1331.6 346.3,1328.6 348.3,1321.6 353.3,1312.6 352.3,1313.6 350.3,1303.6 351.3,1304.6 351.3,1303.6 
			354.3,1310.6 353.3,1311.6 358.3,1313.6 359.3,1311.6 362.3,1310.6 362.3,1307.6 363.3,1309.6 366.3,1304.6 371.3,1303.6 
			378.3,1303.6 379.3,1301.6 382.3,1300.6 384.3,1301.6 387.3,1300.6 390.3,1298.6 389.3,1297.6 391.3,1294.6 389.3,1292.6 
			394.3,1289.6 394.3,1287.6 389.3,1286.6 389.3,1285.6 391.3,1283.6 394.3,1282.6 399.3,1282.6 400.3,1280.6 402.3,1281.6 
			404.3,1280.6 407.3,1280.6 408.3,1279.6 412.3,1277.6 415.3,1278.6 416.3,1276.6 414.3,1274.6 416.3,1272.6 415.3,1270.6 
			416.3,1269.6 416.3,1266.6 417.3,1265.6 417.3,1266.6 418.3,1264.6 420.3,1265.6 420.3,1263.6 422.3,1264.6 424.3,1263.6 
			425.3,1266.6 427.3,1269.6 428.3,1268.6 428.3,1267.6 429.3,1266.6 430.3,1268.6 436.3,1265.6 435.3,1264.6 433.3,1264.6 
			433.3,1262.6 437.3,1257.6 435.3,1254.6 437.3,1253.6 442.3,1254.6 444.3,1254.6 447.3,1258.6 449.3,1263.6 453.3,1265.6 
			453.3,1268.6 454.3,1270.6 457.3,1269.6 459.3,1266.6 462.3,1266.6 463.3,1265.6 465.3,1264.6 466.3,1265.6 468.3,1263.6 
			471.3,1263.6 472.3,1262.6 472.3,1265.6 473.3,1262.6 475.3,1261.6 476.3,1264.6 477.3,1264.6 481.3,1265.6 483.3,1266.6 
			488.3,1270.6 490.3,1268.6 491.3,1268.6 492.3,1265.6 491.3,1265.6 490.3,1263.6 492.3,1262.6 492.3,1261.6 493.3,1262.6 
			493.3,1260.6 490.3,1258.6 490.3,1253.6 490.3,1251.6 491.3,1248.6 488.3,1247.6 488.3,1243.6 487.3,1240.6 487.3,1238.6 
			485.3,1237.6 486.3,1235.6 490.3,1235.6 492.3,1231.6 494.3,1230.6 497.3,1232.6 497.3,1231.6 498.3,1230.6 497.3,1230.6 
			497.3,1227.6 498.3,1226.6 499.3,1225.6 498.3,1222.6 498.3,1220.6 500.3,1221.6 501.3,1218.6 500.3,1217.6 		"/>
	</g>
	<g id="tv" class="nhsuk-region">
		<polygon class="st0" points="578.3,1192.6 576.3,1186.6 575.3,1186.6 573.3,1182.6 574.3,1179.6 575.3,1179.6 575.3,1178.6 
			576.3,1177.6 576.3,1176.6 573.3,1176.6 573.3,1174.6 572.3,1172.6 573.3,1170.6 572.3,1169.6 571.3,1169.6 570.3,1167.6 
			568.3,1168.6 564.3,1165.6 562.3,1162.6 562.3,1161.6 560.3,1158.6 559.3,1159.6 558.3,1156.6 560.3,1154.6 561.3,1154.6 
			562.3,1155.6 562.3,1156.6 564.3,1159.6 566.3,1159.6 570.3,1160.6 572.3,1157.6 572.3,1158.6 573.3,1158.6 574.3,1157.6 
			570.3,1152.6 567.3,1150.6 565.3,1150.6 563.3,1148.6 562.3,1148.6 561.3,1147.6 557.3,1143.6 555.3,1143.6 554.3,1142.6 
			554.3,1145.6 551.3,1142.6 551.3,1141.6 553.3,1137.6 553.3,1136.6 548.3,1131.6 548.3,1132.6 547.3,1132.6 545.3,1133.6 
			542.3,1125.6 541.3,1127.6 536.3,1126.6 535.3,1126.6 536.3,1128.6 534.3,1128.6 529.3,1130.6 528.3,1133.6 529.3,1134.6 
			528.3,1136.6 526.3,1136.6 523.3,1139.6 520.3,1137.6 517.3,1138.6 517.3,1134.6 514.3,1129.6 516.3,1126.6 514.3,1125.6 
			519.3,1123.6 513.3,1114.6 512.3,1118.6 510.3,1118.6 508.3,1121.6 510.3,1121.6 511.3,1123.6 509.3,1124.6 506.3,1121.6 
			504.3,1121.6 504.3,1123.6 502.3,1123.6 501.3,1124.6 498.3,1137.6 496.3,1137.6 496.3,1138.6 494.3,1139.6 493.3,1139.6 
			492.3,1141.6 488.3,1137.6 488.3,1140.6 490.3,1141.6 491.3,1144.6 489.3,1146.6 490.3,1148.6 488.3,1149.6 487.3,1151.6 
			486.3,1153.6 487.3,1155.6 486.3,1157.6 486.3,1161.6 483.3,1163.6 485.3,1165.6 486.3,1169.6 485.3,1171.6 486.3,1172.6 
			489.3,1176.6 487.3,1176.6 486.3,1175.6 485.3,1177.6 486.3,1180.6 488.3,1183.6 491.3,1182.6 494.3,1185.6 491.3,1187.6 
			489.3,1187.6 490.3,1188.6 489.3,1190.6 492.3,1197.6 494.3,1196.6 494.3,1200.6 498.3,1206.6 498.3,1209.6 495.3,1209.6 
			495.3,1210.6 496.3,1211.6 496.3,1212.6 501.3,1216.6 500.3,1217.6 501.3,1218.6 500.3,1221.6 506.3,1220.6 504.3,1218.6 
			506.3,1217.6 507.3,1215.6 512.3,1216.6 519.3,1215.6 525.3,1217.6 528.3,1217.6 529.3,1217.6 529.3,1215.6 532.3,1214.6 
			534.3,1217.6 543.3,1216.6 545.3,1217.6 545.3,1219.6 547.3,1221.6 551.3,1222.6 551.3,1225.6 548.3,1225.6 548.3,1226.6 
			548.3,1227.6 548.3,1231.6 546.3,1234.6 546.3,1236.6 550.3,1236.6 552.3,1240.6 551.3,1244.6 554.3,1243.6 556.3,1244.6 
			557.3,1246.6 558.3,1245.6 558.3,1241.6 559.3,1238.6 558.3,1236.6 558.3,1235.6 561.3,1234.6 561.3,1233.6 561.3,1229.6 
			560.3,1227.6 562.3,1223.6 561.3,1220.6 566.3,1218.6 566.3,1214.6 568.3,1214.6 567.3,1213.6 568.3,1209.6 572.3,1210.6 
			573.3,1206.6 575.3,1207.6 573.3,1204.6 574.3,1203.6 576.3,1203.6 577.3,1200.6 578.3,1198.6 577.3,1194.6 	"/>
	</g>
	<g id="nw" class="nhsuk-region">
		<polygon class="st0" points="476.3,942.6 474.3,943.6 472.3,940.6 470.3,941.6 469.3,940.6 469.3,939.6 466.3,937.6 461.3,930.6 
			460.3,930.6 460.3,929.6 458.3,922.6 455.3,924.6 453.3,923.6 452.3,922.6 451.3,923.6 451.3,922.6 449.3,917.6 452.3,913.6 
			452.3,907.6 457.3,904.6 458.3,903.6 458.3,901.6 455.3,898.6 456.3,897.6 453.3,891.6 448.3,890.6 448.3,888.6 447.3,885.6 
			445.3,887.6 444.3,885.6 445.3,884.6 444.3,884.6 440.3,885.6 438.3,882.6 436.3,883.6 435.3,882.6 435.3,880.6 436.3,880.6 
			435.3,879.6 433.3,875.6 430.3,877.6 426.3,876.6 426.3,872.6 428.3,869.6 427.3,868.6 428.3,866.6 429.3,865.6 435.3,857.6 
			436.3,856.6 437.3,857.6 436.3,855.6 437.3,853.6 439.3,852.6 440.3,851.6 440.3,850.6 439.3,850.6 438.3,849.6 437.3,843.6 
			438.3,840.6 434.3,836.6 433.3,834.6 430.3,835.6 428.3,834.6 427.3,835.6 425.3,834.6 423.3,835.6 421.3,832.6 420.3,832.6 
			418.3,832.6 416.3,830.6 413.3,830.6 410.3,827.6 409.3,825.6 408.3,827.6 402.3,823.6 400.3,820.6 400.3,821.6 398.3,821.6 
			396.3,819.6 395.3,820.6 393.3,820.6 392.3,823.6 389.3,820.6 388.3,820.6 387.3,819.6 384.3,818.6 380.3,819.6 378.3,822.6 
			377.3,821.6 377.3,823.6 375.3,822.6 373.3,824.6 374.3,827.6 372.3,828.6 371.3,832.6 367.3,835.6 363.3,836.6 362.3,837.6 
			363.3,838.6 363.3,840.6 362.3,841.6 363.3,844.6 362.3,845.6 363.3,847.6 361.3,847.6 359.3,846.6 357.3,847.6 355.5,848.5 
			361.3,857.6 363.3,858.6 364.3,857.6 366.3,857.6 367.3,856.6 367.3,854.6 366.3,855.6 365.3,855.6 369.3,851.6 368.3,850.6 
			369.3,850.6 368.3,849.6 370.3,849.6 371.3,853.6 370.3,855.6 369.3,859.6 366.3,860.6 367.3,862.6 368.3,862.6 367.3,867.6 
			369.3,870.6 369.3,869.6 371.3,869.6 372.3,871.6 372.3,872.6 373.3,871.6 378.3,867.6 381.3,861.6 381.3,858.6 383.3,855.6 
			382.3,854.6 382.3,853.6 383.3,852.6 384.3,854.6 384.3,853.6 385.3,855.6 383.3,857.6 385.3,859.6 385.3,860.6 387.3,859.6 
			385.3,862.6 386.3,862.9 386.3,864.6 384.3,865.6 387.3,864.6 388.3,863.6 390.3,862.6 390.3,861.6 391.3,862.6 391.3,860.6 
			393.3,857.6 398.3,856.6 396.3,857.6 397.3,859.6 396.3,859.6 396.3,862.6 398.3,862.6 399.3,866.6 401.1,866.6 399.3,869.6 
			399.3,870.6 395.3,872.6 393.3,877.6 391.3,878.6 393.3,879.6 393.3,883.6 394.3,883.6 394.3,881.6 395.3,883.6 395.3,881.6 
			396.3,881.6 398.3,880.6 398.3,879.6 398.3,878.6 397.3,876.6 401.3,875.6 399.3,876.6 398.3,876.6 399.3,877.6 398.3,882.6 
			397.3,882.6 395.3,884.6 396.3,886.6 397.3,886.6 395.3,888.6 394.3,888.6 394.3,889.6 393.3,889.6 392.3,888.6 386.3,891.6 
			386.3,893.6 387.3,894.6 386.3,894.6 386.3,895.6 389.3,897.6 388.3,899.6 387.3,900.6 388.3,898.6 385.3,894.6 385.3,891.6 
			382.3,892.6 382.3,897.6 381.3,910.6 383.3,914.6 388.3,915.6 390.3,915.6 389.3,916.6 391.3,915.6 392.3,915.6 391.3,916.6 
			392.3,916.6 391.3,917.6 392.3,918.6 390.3,917.6 390.3,918.6 391.3,919.6 390.3,919.6 389.3,919.6 390.3,920.6 389.3,920.6 
			390.3,921.6 389.3,921.6 388.3,921.6 383.3,926.6 379.3,935.6 378.3,939.6 380.3,942.6 381.3,942.6 381.3,945.6 383.3,949.6 
			385.3,953.6 386.3,957.6 388.3,961.6 395.3,966.6 397.3,967.6 399.3,966.6 402.3,968.6 403.3,967.6 402.3,966.6 403.3,966.6 
			404.3,964.6 406.3,964.6 409.3,963.6 407.3,965.6 404.3,965.6 404.3,967.6 405.3,969.6 402.3,971.6 400.3,970.6 397.3,970.6 
			398.3,971.6 397.3,972.6 393.3,971.6 391.3,969.6 386.3,961.6 383.3,952.6 370.3,959.6 372.3,962.6 376.3,968.6 377.3,971.6 
			378.3,971.6 377.3,972.6 378.3,973.6 379.3,972.6 381.3,974.6 379.3,973.6 380.3,974.6 379.3,974.6 379.3,975.6 380.3,976.6 
			379.3,976.6 384.3,977.6 390.3,982.6 392.3,985.6 393.3,984.6 391.3,987.6 386.3,989.6 390.3,993.6 393.3,994.6 395.3,993.6 
			393.3,997.6 395.3,998.6 395.3,999.6 396.3,1001.6 395.3,1001.6 396.3,1002.6 396.3,1003.6 397.3,1004.6 396.3,1006.6 
			398.3,1006.6 398.3,1009.6 401.3,1010.6 404.3,1009.6 404.3,1010.6 407.3,1011.6 409.3,1009.6 411.3,1010.6 414.3,1009.6 
			417.3,1011.6 416.3,1013.6 417.3,1014.6 419.3,1013.6 422.3,1015.6 422.3,1012.6 425.3,1014.6 429.3,1012.6 429.3,1010.6 
			433.3,1009.6 433.3,1008.6 434.3,1007.6 433.3,1005.6 433.3,1002.6 435.3,1001.6 438.3,998.6 440.3,999.6 443.3,997.6 
			450.3,988.6 451.3,989.6 451.3,985.6 453.3,987.6 457.3,987.6 458.3,984.6 462.3,984.6 463.3,982.6 463.3,980.6 464.3,979.6 
			461.3,976.6 461.3,964.6 460.3,962.6 459.3,961.6 462.3,960.6 463.3,956.6 464.3,955.6 465.3,957.6 467.3,957.6 472.3,955.6 
			473.3,952.6 472.3,950.6 475.3,950.6 477.3,948.6 478.3,945.6 		"/>
		<polygon class="st0" points="387.3,920.6 388.3,921.6 388.3,920.6 		"/>
		<polygon class="st0" points="355.3,848.6 355.5,848.5 354.3,846.6 		"/>
		<polygon class="st0" points="365.3,863.6 365.3,868.6 370.3,876.6 373.3,876.6 373.3,875.6 372.3,875.6 370.3,875.6 370.3,873.6 
			369.3,873.6 369.3,871.6 367.3,869.6 367.3,868.6 		"/>
		<path class="st0" d="M279.6,835.6l2,1.6l-3,0.1l-4.3,0.1l-2.6,3l-3.3,1.7l-3.6,3.7l-0.2,4.9l-2.9,3l-1.6,2.3l-2.3,2l-1.3,2.7v1.6
			l-0.6,2.3l-1.3,3.3l-1.3,1l-1.6,4.3l-1.3,3.6l-1.3,1.3l2,1l3.3-0.7l1.6-2l3.3-0.1v2l2.6-0.4l1-1.7l1.6-1.7l1.9-1.7l3.6-1.4l2.9-1.7
			h2.3l0.3-2.6l1.9-2l2.3-0.7l-0.7-3.9l-0.1-3.6l1.6-2.3l4.3-0.1l0.3-1.6l1.3-1v-2.3l-1.7-1.3l-3.6-0.6l0.3-2l0.3-4l2-1.4l0.6-3
			l-2-2.9l-3.6-0.3L279.6,835.6z"/>
	</g>
	<g id="kss" class="nhsuk-region">
		<polygon class="st0" points="665.3,1211.6 666.3,1212.6 668.3,1212.6 667.3,1210.6 		"/>
		<rect x="665.3" y="1209.6" class="st0" width="2" height="1"/>
		<polygon class="st0" points="659.3,1211.6 658.3,1211.6 657.3,1212.6 		"/>
		<polygon class="st0" points="723.3,1213.6 721.3,1213.6 715.3,1214.6 706.3,1214.6 693.3,1216.6 691.3,1218.6 683.3,1219.6 
			681.3,1217.6 677.3,1217.6 673.3,1217.6 673.3,1216.6 676.3,1215.6 679.3,1216.6 680.3,1216.6 683.3,1218.6 687.3,1215.6 
			683.3,1210.6 677.3,1209.6 672.3,1206.6 671.3,1209.6 672.3,1210.6 670.3,1211.6 670.3,1212.6 669.3,1210.6 670.3,1209.6 
			669.3,1209.6 668.3,1209.6 668.3,1212.6 669.3,1213.6 668.3,1214.6 668.3,1213.6 667.3,1213.6 666.3,1215.6 664.3,1212.6 
			663.3,1215.6 663.3,1213.6 662.3,1213.6 661.3,1215.6 660.3,1214.6 657.3,1213.6 656.3,1211.6 654.3,1214.6 653.3,1213.6 
			652.3,1214.6 650.3,1215.6 651.3,1214.6 652.3,1213.6 653.3,1212.6 654.3,1213.6 654.3,1212.6 655.3,1210.6 661.3,1210.6 
			662.3,1209.6 662.3,1208.6 661.3,1209.6 663.3,1206.6 665.3,1206.6 666.3,1206.6 666.3,1208.6 669.3,1207.6 670.3,1205.6 
			668.3,1203.6 666.3,1203.6 665.3,1202.6 662.3,1202.6 659.3,1201.6 659.3,1202.6 656.3,1201.6 652.3,1201.6 650.3,1202.6 
			650.3,1205.6 646.3,1206.6 639.3,1205.6 638.3,1203.6 636.3,1205.6 631.3,1202.6 631.3,1203.6 631.3,1204.6 630.3,1204.6 
			628.3,1206.6 627.3,1208.6 626.3,1208.6 626.3,1211.6 627.3,1213.6 626.3,1213.6 626.3,1216.6 625.3,1219.6 624.3,1219.6 
			624.3,1221.6 621.3,1223.6 622.3,1225.6 619.3,1226.6 618.3,1225.6 617.3,1224.6 616.3,1226.6 615.3,1221.6 612.3,1220.6 
			611.3,1222.6 609.3,1222.6 608.3,1224.6 605.3,1226.6 604.3,1224.6 603.3,1224.6 602.3,1221.6 600.3,1219.6 598.3,1221.6 
			597.3,1220.6 598.3,1219.6 597.3,1217.6 596.3,1216.6 596.3,1214.6 595.3,1214.6 593.3,1216.6 591.3,1220.6 590.3,1221.6 
			589.3,1218.6 591.3,1215.6 591.3,1214.6 587.3,1210.6 585.3,1211.6 585.3,1209.6 580.3,1207.6 580.3,1205.6 576.3,1203.6 
			574.3,1203.6 573.3,1204.6 575.3,1207.6 573.3,1206.6 572.3,1210.6 568.3,1209.6 567.3,1213.6 568.3,1214.6 566.3,1214.6 
			566.3,1218.6 561.3,1220.6 562.3,1223.6 560.3,1227.6 561.3,1229.6 561.3,1233.6 561.3,1234.6 558.3,1235.6 558.3,1236.6 
			559.3,1238.6 558.3,1241.6 558.3,1245.6 557.3,1246.6 556.3,1244.6 554.3,1243.6 556.3,1248.6 558.3,1249.6 556.3,1250.6 
			557.3,1250.6 557.3,1252.6 555.3,1253.6 554.3,1255.6 552.3,1254.6 552.3,1255.6 550.3,1254.6 550.3,1257.6 546.3,1260.6 
			546.3,1262.6 545.3,1263.6 544.3,1270.6 543.3,1270.6 544.3,1272.6 543.3,1273.6 542.3,1277.6 544.3,1280.6 543.3,1282.6 
			543.3,1283.6 543.3,1284.6 543.3,1286.6 545.3,1288.6 545.3,1285.6 545.3,1283.6 546.3,1283.6 547.3,1286.6 548.3,1287.6 
			545.3,1291.6 550.3,1294.6 554.3,1298.6 557.3,1293.6 561.3,1291.6 573.3,1288.6 585.3,1287.6 593.3,1285.6 596.3,1285.6 
			595.3,1284.6 596.3,1284.6 598.3,1285.6 612.3,1288.6 619.3,1291.6 618.3,1287.6 619.3,1290.6 625.3,1294.6 626.3,1293.6 
			630.3,1296.6 633.3,1296.6 634.3,1296.6 643.3,1286.6 655.3,1282.6 660.3,1281.6 665.3,1279.6 670.3,1274.6 674.3,1272.6 
			673.3,1271.6 680.3,1272.6 689.3,1274.6 688.3,1267.6 689.3,1263.6 691.3,1260.6 694.3,1256.6 698.3,1254.6 706.3,1253.6 
			705.3,1253.6 708.3,1250.6 711.3,1250.6 714.3,1248.6 716.3,1249.6 715.3,1248.6 716.3,1248.6 715.3,1247.6 717.3,1246.6 
			720.3,1245.6 722.3,1241.6 722.3,1234.6 719.3,1223.6 718.3,1224.6 718.3,1227.6 717.3,1224.6 720.3,1221.6 722.3,1222.6 
			723.3,1221.6 725.3,1217.6 725.3,1213.6 		"/>
	</g>
	<g id="nenc" class="nhsuk-region">
		<polygon class="st0" points="360.3,769.6 361.3,769.6 360.3,768.6 		"/>
		<polygon class="st0" points="511.3,764.6 511,765.3 511.3,765.6 		"/>
		<path class="st0" d="M550.3,809.6h-4l-3-2h-2l-3-1l-4-3l-5-1l-1-3v3h-1l-1,3l-3,3l-4-1l-1,2l1-3l4,2l3-4v-2l-1,1l-2-1l1-1h2l-1-1
			l1-1l-2-1l-1-3l0.8-1.6l1.2,0.6v-1l-5-3l-5-6l-2-9h1l-2-3l-1-4l1-1l-1-2l-1,1l0.7-1.3l-0.7-0.7l1-2v-3l-4-4l1-2l-2,1h-1l-1,3l-2-1
			l1,1l-1,1v-2l-4,1v2l-2,1l-3-1l-2,1h-1l3-2l3,2l1-1l1-2l2-1h2h2l1-3h3l-2-1l-3-7l-1-1v1l-2-6l1,1l-3-6l1-3h1l-5-11l1-6l-1-2h-1
			l-2-1h-1l1-1l1,1h1l-2-5h-1v-1l1,1l2-3v-3l-1-1v-7l-2-1l1-3l-2-2l1-2l-2-2l1-1l-7-5h-1l-2,2l-2-2l2-1l-1-2l-3,1l-2-1l-2-3v-2h-1
			v-2l-6-5l-3-4h-1l-2,1v-1l2-1l1,1h1l-3-5l-5,2v4h-1l-1,3h-2v2h-2v2l-4,4v1l-2,2l1,1l-5-1l-3,2l1,1h1v1l2,2v3l4,3l1,6l2,2v2l2,1
			l-1,1l-1,2l-3,2h-2l-4,3h-2v1l1,2l-1,1v1l-3,2h-1l-2-1l-4,1l-4,4h-3l-1,3l-2,2l-2,2l-1,1l2,1l-1,1v2h-3l-2,5l-1,2l-6,4h-3l-1,3
			l-2,1l-2,4l-4,1l1,1l-2,1h-7l2,2l-3,6l2,3l-2-2l-1,2l-2-1v1l-1,1h1l-1,1h-1v1l0.8,0.8l2.2-0.8l1-1l2-1l1,1h-1l-5,3l-7-4l-2,1l-3,2
			v-1h-1l-2,3v1l3,1l1.3-0.7l0.7,0.7l-2,2v-1h-1v2v1l-1-2h-2l-1,1l-1-1v-1l1-1l-2,1l-3,3l-3,9v6l-5,4l-1,4l-4,5h-1l2,5l-2,3v2l-2,5
			l-2,3l10,12l6,9l1,8l1,2l2-1l2-1l2,1h2l-1-2l1-1l-1-3l1-1v-2l-1-1l1-1l4-1l4-3l1-4l2-1l-1-3l2-2l2,1v-2l1,1l2-3l4-1l3,1l1,1h1l3,3
			l1-3h2l1-1l2,2h2v-1l2,3l6,4l1-2l1,2l3,3h3l2,2h2h1l2,3l2-1l2,1l1-1l2,1l3-1l1,2h2l2-2h1l1-2l-1-1v-3l1-2l3-2l5,1v-2h1h4l6-3v1
			l3,1l2,2h2l7-4v-2l1-1l4,3l1-3v-3l3,1l1-2l2,1h3v1h2v1h2v1l2-1l-1,2l1-1v1l2,2l1,2h2l-1-2h1v1l2-1l-1,1h2l1,3v-5l-1-1h1l3,2l-1,1
			h2v-1v-1l1,1l1-1l1,3h2v1l3-2l2-2l2,1v-2l2-1l8,1l2-1l4,2l3-1l4,2l5-2l3,2v-6l2-2h2v-1L550.3,809.6z M499,737.9l-0.7-0.3v-1
			L499,737.9z M355.3,840.6l-1-1v-2l-2-1v-1v-1h1l-1,1l1,1l2-1l-1,1l1,3l4-4L355.3,840.6z M366.9,766.8l0.4-0.2l2,1L366.9,766.8z
			 M385.3,763.6v-2l1,2H385.3z"/>
		<polygon class="st0" points="377.3,763.6 377.1,763.4 376.3,763.6 		"/>
	</g>
	<g id="yh" class="nhsuk-region">
		<polygon class="st0" points="623.3,936.6 626.3,932.6 626.1,932 		"/>
		<polygon class="st0" points="611.3,908.6 603.3,894.6 599.3,881.6 598.3,874.6 602.3,869.6 607.3,868.6 609.3,867.6 607.3,865.6 
			598.3,862.6 593.3,858.6 593.3,855.6 595.3,854.6 587.3,850.6 585.3,847.6 584.3,846.6 585.3,845.6 584.3,844.6 583.3,840.6 
			582.3,838.6 579.3,832.6 575.3,829.6 574.3,827.6 575.3,825.6 571.3,821.6 568.3,819.6 563.3,818.6 563.3,817.6 561.3,814.6 
			558.3,814.6 556.3,811.6 554.3,811.6 554.3,812.6 552.3,812.6 550.3,814.6 550.3,820.6 547.3,818.6 542.3,820.6 538.3,818.6 
			535.3,819.6 531.3,817.6 529.3,818.6 521.3,817.6 519.3,818.6 519.3,820.6 517.3,819.6 515.3,821.6 512.3,823.6 512.3,822.6 
			510.3,822.6 509.3,819.6 509.3,820.6 508.3,820.6 507.3,819.6 507.3,820.6 507.3,821.6 505.3,821.6 506.3,820.6 503.3,818.6 
			502.3,818.6 503.3,819.6 503.3,824.6 502.3,821.6 500.3,821.6 501.3,820.6 499.3,821.6 499.3,820.6 498.3,820.6 499.3,822.6 
			497.3,822.6 496.3,820.6 494.3,818.6 494.3,817.6 493.3,818.6 494.3,816.6 492.3,817.6 492.3,816.6 490.3,816.6 490.3,815.6 
			488.3,815.6 488.3,814.6 485.3,814.6 483.3,813.6 482.3,815.6 479.3,814.6 479.3,817.6 478.3,820.6 474.3,817.6 473.3,818.6 
			473.3,820.6 466.3,824.6 464.3,824.6 462.3,822.6 459.3,821.6 459.3,820.6 453.3,823.6 449.3,823.6 448.3,823.6 448.3,825.6 
			443.3,824.6 440.3,826.6 439.3,828.6 439.3,831.6 440.3,832.6 439.3,834.6 438.3,834.6 436.3,836.6 434.3,836.6 438.3,840.6 
			437.3,843.6 438.3,849.6 439.3,850.6 440.3,850.6 440.3,851.6 439.3,852.6 437.3,853.6 436.3,855.6 437.3,857.6 436.3,856.6 
			435.3,857.6 429.3,865.6 428.3,866.6 427.3,868.6 428.3,869.6 426.3,872.6 426.3,876.6 430.3,877.6 433.3,875.6 435.3,879.6 
			436.3,880.6 435.3,880.6 435.3,882.6 436.3,883.6 438.3,882.6 440.3,885.6 444.3,884.6 445.3,884.6 444.3,885.6 445.3,887.6 
			447.3,885.6 448.3,888.6 448.3,890.6 453.3,891.6 456.3,897.6 455.3,898.6 458.3,901.6 458.3,903.6 457.3,904.6 452.3,907.6 
			452.3,913.6 449.3,917.6 451.3,922.6 451.3,923.6 452.3,922.6 453.3,923.6 455.3,924.6 458.3,922.6 460.3,929.6 460.3,930.6 
			461.3,930.6 466.3,937.6 469.3,939.6 469.3,940.6 470.3,941.6 472.3,940.6 474.3,943.6 476.3,942.6 478.3,945.6 477.3,948.6 
			480.3,950.6 481.3,950.6 482.3,955.6 484.3,956.6 485.3,957.6 488.3,959.6 488.3,962.6 493.3,965.6 492.3,965.6 490.3,968.6 
			492.3,968.6 493.3,969.6 494.3,968.6 494.3,969.6 495.3,968.6 495.3,970.6 497.3,970.6 500.3,968.6 503.3,968.6 504.3,968.6 
			503.3,967.6 505.3,966.6 506.3,966.6 507.3,965.6 509.3,966.6 509.3,968.6 513.3,969.6 514.3,967.6 515.3,966.6 516.3,967.6 
			516.3,969.6 519.3,970.6 521.3,969.6 523.3,970.6 523.3,969.6 525.3,970.6 525.3,972.6 526.3,973.6 524.3,974.6 525.3,975.6 
			523.3,975.6 522.3,977.6 523.3,979.6 522.3,981.6 529.3,980.6 529.3,979.6 533.3,978.6 536.3,975.6 538.3,979.6 541.3,979.6 
			542.3,980.6 542.3,981.6 546.3,980.6 549.3,982.6 551.3,981.6 552.3,983.6 555.3,983.6 555.3,978.6 556.3,974.6 555.3,973.6 
			556.3,971.6 557.3,971.6 558.3,970.6 557.3,968.6 556.3,967.6 557.3,964.6 556.3,962.6 554.3,962.6 555.3,961.6 555.3,960.6 
			554.3,960.6 555.3,958.6 554.3,956.6 552.3,954.6 552.3,953.6 554.3,951.6 555.3,948.6 556.3,948.6 556.3,946.6 556.3,945.6 
			557.3,945.6 558.3,944.6 558.3,943.6 567.3,943.6 567.3,950.6 572.3,950.6 579.3,948.6 577.3,948.6 577.3,945.6 584.3,943.6 
			583.3,941.6 582.3,939.6 576.3,940.6 577.3,939.6 579.3,939.6 582.3,936.6 583.3,937.6 589.3,938.6 592.3,933.6 591.3,931.6 
			592.3,931.6 596.3,933.6 595.3,934.6 597.3,934.6 598.3,936.6 600.3,936.6 600.3,937.6 598.3,941.6 599.3,941.6 599.3,944.6 
			599.3,947.6 600.3,947.6 601.3,949.6 603.3,949.6 603.3,952.6 605.3,953.6 605.3,954.6 608.3,951.6 606.3,949.6 608.3,948.6 
			607.3,947.6 609.3,946.6 610.3,943.6 611.3,943.6 612.3,943.6 616.3,942.6 610.3,935.6 609.3,934.6 609.3,935.6 607.3,935.6 
			599.3,928.6 592.3,918.6 585.3,920.6 579.3,920.6 575.3,923.6 570.3,921.6 568.3,918.6 566.3,918.6 562.3,920.6 562.3,923.6 
			561.3,922.6 561.3,920.6 560.3,919.6 562.3,919.6 563.3,917.6 567.3,916.6 566.3,916.6 567.3,915.6 570.3,916.6 573.3,919.6 
			583.3,917.6 589.3,915.6 593.3,914.6 596.3,915.6 596.3,916.6 597.3,915.6 597.3,919.6 607.3,928.6 610.3,929.6 616.3,927.6 
			617.3,926.6 621.3,927.6 625.8,931.2 623.3,924.6 		"/>
		<polygon class="st0" points="574.3,922.6 575.3,922.6 572.3,921.6 		"/>
		<polygon class="st0" points="625.8,931.2 626.1,932 626.3,931.6 		"/>
	</g>
</g>
</svg>
